<svg id="Layer_1" data-name="Layer 1" xmlns="http://www.w3.org/2000/svg" viewBox="0 0 200 200"><defs><style>.cls-1{fill:#fcce0f;}.cls-2{fill:#f27926;}.cls-3{fill:#ed5127;}.cls-4{fill:#774639;}.cls-5{fill:#934f41;}.cls-6{fill:#e46a58;}.cls-7{fill:#59362c;}.cls-8{fill:none;}.cls-9{opacity:0.8;}.cls-10{fill:#fff;opacity:0.2;}</style></defs><title>meteor</title><path class="cls-1" d="M111.4,35.18c0,.09.34.06,0,.3-1.2.72-2.33,1-3.5,1.78v.2a22,22,0,0,0-3,1.88A14.43,14.43,0,0,0,102.42,42a13,13,0,0,0-1.63,3.28c.08,0,.13,0,.08.18A29.81,29.81,0,0,0,100,48.9l-.06.56c0,.15.07.2.1.22-.09.55-.17,1-.24,1.5-.28,5.76-1.14,11.56-2,18-.1,1.37-.18,2.75-.32,4.06-.13,1-.28,2.07-.46,3.16s-.31,2.18-.4,3.14c.3-.12.43,1,.57,2s.36,1.94.67,1.49A11,11,0,0,0,98,86.22a2.24,2.24,0,0,1,.79,1.1,22.78,22.78,0,0,1,.92,3.22,34.36,34.36,0,0,0,.61,3.52c.3.63,0-1.64.31-1-1.77-8.92-.21-18.06,1.62-27.64.1-.83.44-2.84.86-5.51.22-1.33.44-2.84.66-4.44s.39-3.24.59-4.92a16.42,16.42,0,0,1,1-4.3,8.62,8.62,0,0,1,2.25-3A25.92,25.92,0,0,1,113,39.8l.44-.23a74,74,0,0,1,8.5-3.47c1.1-.42,2.23-.86,3.38-1.21h-1.55c1.2-.25,2.41-.43,2.87-.6,2.56-.57,1.07-.68,0-.93-.76-.06.2-.47-1-.47.83-.11,1.25-.19,2.1-.27.07-.2-2.57.44-2,.09.81-.06,1.71-.29,2.55-.36-.32-.21-2.93.29-2.83.07.45-.13,2.41,0,2.54-.32a6.31,6.31,0,0,0-1.25.09,24,24,0,0,0,2.7-.53c.39-.15.14-.27-1.09-.31.85-.08,2,0,2.94-.11h0c-.44,0-1.22,0-1.63,0l1.52-.07-.27-.1c-.38,0-.76,0-1.16,0l1,0a7.83,7.83,0,0,0-.89-.21,20,20,0,0,0-3.07-.14A45.67,45.67,0,0,0,111.4,35.18Z"/><path class="cls-1" d="M157.67,117.09c.05.1.27.09,0,.28-.78.54-1.61.64-2.36,1.24l0,.17c-.65.33-1.33.68-2,1.07a41.32,41.32,0,0,0-3.3,2.67c.07,0,.11,0,0,.16-.42.39-1.07.87-1.71,1.4l-.26.26a.23.23,0,0,0,0,.18l-.78.65c-2.8,2.94-5.35,6.09-8.18,9.39-.55.75-1.1,1.5-1.69,2.16a34.4,34.4,0,0,1-3.17,2.79c.55.33-1.73,2.47-.9,2.55-.7.52-1.81,1.22-1.78,1.39.07.5-.14,1.43-2.27,2.77a26.11,26.11,0,0,1-2.68,1c-.48.32,1.33-.07.86.25a26.33,26.33,0,0,0,9.18-5.47c2.58-2.25,4.83-4.62,7.2-6.95a91.32,91.32,0,0,1,7-7.07,57.53,57.53,0,0,1,5-4,37.65,37.65,0,0,1,3.76-2.37l.29-.17c1.78-1,4-2,5.5-2.74.69-.38,1.4-.77,2.14-1.11h-1.06a12.73,12.73,0,0,0,1.87-.55c1.66-.58.66-.68-.1-.93-.53-.06.08-.46-.73-.47l1.41-.27c0-.18-1.72.44-1.39.1.56,0,1.15-.29,1.73-.36-.24-.21-2,.3-2,.08.31-.13,1.67-.06,1.73-.33a2.44,2.44,0,0,0-.85.1c1.75-.42,2.74-.79,1-.84.58-.1,1.42-.07,2-.17h0c-.31,0-.85,0-1.13.06l1.05-.1-.19-.1a7.31,7.31,0,0,0-.81,0l.7-.07a6,6,0,0,0-.63-.19,10.09,10.09,0,0,0-2.17-.09A32.42,32.42,0,0,0,157.67,117.09Z"/><path class="cls-1" d="M142.28,140c36.94-41.69,70.4-164.88,29.86-126.36C133.49,50.34,18.91,28.3,18.91,87.65s18.65,80,18.65,80S102.92,184.42,142.28,140Z"/><path class="cls-2" d="M135.8,133.2C170,97.7,192.58.21,159.88,31.28,128.71,60.89,26.27,46.21,26.27,94.09S53.8,174.17,53.8,174.17,102.57,167.67,135.8,133.2Z"/><path class="cls-3" d="M131.59,129.71c28.07-32.39,46.57-109.09,19.75-83.61C125.77,70.39,41.74,58.35,41.74,97.62s22.58,65.7,22.58,65.7S105.86,159.38,131.59,129.71Z"/><path class="cls-3" d="M96.75,68.7c0-.1-.34-.17.16-.27,1.58-.26,2.88-.06,4.45-.34l.1-.18,3.82-.21c2.38-.32,4.74-.64,7.11-1-.07,0-.1-.1.13-.15,1-.18,2.36-.31,3.79-.5l.62-.13c.16-.06.19-.12.21-.16l1.76-.25a76.09,76.09,0,0,0,10.43-3,55.26,55.26,0,0,0,10.2-5l4-2.79c1.94-1.28,4.47-2.82,6.36-4-.6-.29,3.84-3.55,2.6-3.44A20.15,20.15,0,0,0,155.65,45c0-.6.68-1.71,3.86-4.15,1.27-.92,3.38-2.06,3.79-2.45.64-.61-1.88.83-1.24.22-4.9,3.12-9.66,6.26-14.41,9.43s-9.41,6.31-14.5,8.57a38.32,38.32,0,0,1-5.85,2.33,75.39,75.39,0,0,1-10.57,2.43c-3.91.65-8,1.13-11.52,1.56s-6.46.75-8.17.91l-.61.07c-3.72.36-8.22.77-11.35,1.13-1.43.2-2.89.42-4.35.6l1.87.24c-1.49,0-3,0-3.55.14-3.18.23-1.39.53-.16.92.89.18-.31.44,1.08.61l-2.51,0c-.12.17,3.09-.08,2.4.19-1-.07-2.06,0-3.06,0,.34.24,3.49.1,3.33.31-.54.06-2.83-.29-3,0a7.57,7.57,0,0,0,1.48.08c-3.11.06-4.85.25-2,.62-1,0-2.39-.2-3.44-.2h0l1.91.15-1.79-.09.31.13q.66.07,1.35.12l-1.19-.06c.3.1.63.2,1,.29a30.27,30.27,0,0,0,3.53.51A147.41,147.41,0,0,0,96.75,68.7Z"/><path class="cls-3" d="M150.74,104.35c-.08-.07-.31.1-.12-.27.62-1.15,1.48-1.86,2.09-3l-.09-.17c.6-.83,1.23-1.71,1.84-2.64a43.46,43.46,0,0,0,2.64-5.6c-.08,0-.14,0-.08-.17.28-.81.77-1.92,1.13-3.12l.13-.53a.25.25,0,0,0-.07-.23l.42-1.46c1.07-6,.68-11.88.94-18.09a31.41,31.41,0,0,1,.15-3.9,47.91,47.91,0,0,1,1.4-5.94c-.63.13.26-4.31-.54-3.59a11.75,11.75,0,0,0,.62-3.1c-.44-.37-.68-1.43-.59-4.51a23,23,0,0,0,.16-3.4c-.16-.64-.32,1.52-.49.87-.09,4.27-1.39,8.6-2.57,13.2a60.58,60.58,0,0,0-1.46,7.19c-.34,2.45-.52,4.88-.7,7.29,0,.82-.06,2.83-.24,5.38a48.41,48.41,0,0,1-1.3,8.66c-1.53,6-5.47,11.63-7,14l-.27.44c-1.69,2.58-3.69,5.76-4.92,8.08-.5,1.07-1,2.2-1.57,3.31.38-.42.75-.81,1.07-1.14a19.84,19.84,0,0,0-1.52,2.51c-.59,1.12-.66,1.37-.44,1.35a4.64,4.64,0,0,0,1.14-.74c.54-.51.23.46,1-.41-.46.69-.68,1-1.19,1.72.12.18,1.37-2.18,1.27-1.55-.48.63-.88,1.45-1.44,2.12a4.33,4.33,0,0,0,1-1.18c.39-.56.73-1.06.79-1-.18.4-1.54,1.81-1.46,2.09a4.45,4.45,0,0,0,.79-1,23.52,23.52,0,0,1-1.66,2.36c-.28.37.09.36,1.12-.56a7.62,7.62,0,0,1-2.87,2h0a6.49,6.49,0,0,0,1.79-1,6.08,6.08,0,0,1-1.65,1l.37,0a4.9,4.9,0,0,0,1.28-.72,6.31,6.31,0,0,1-1.09.69,4.9,4.9,0,0,0,1.09-.38,9.51,9.51,0,0,0,2.69-2.31c.8-1.13,1.43-2.09,2.15-3.15l2.08-3.11Z"/><path class="cls-2" d="M172.69,65.19c-.08-.06-.24,0-.16-.2.27-.55.83-.77,1.1-1.33l-.12-.13c.32-.36.68-.72,1-1.11.49-.81.94-1.64,1.36-2.49-.07,0-.12,0-.09-.12.15-.36.46-.81.73-1.31l.09-.24a.23.23,0,0,0-.07-.14c.12-.22.23-.42.34-.6A30.48,30.48,0,0,0,178.48,49c0-.63-.07-1.26,0-1.85.09-.87.39-2,.56-2.78-.6,0-.52-2.06-1.16-1.75.11-.56.28-1.39.12-1.46-.46-.22-.94-.74-1-2.27,0-.59.4-1.45.34-1.67s-.48.69-.57.35c-.47,2.13-.83,4.24-1.17,6.36s-.64,4.27-1.11,6.25a18.67,18.67,0,0,1-1.85,5.84,37.65,37.65,0,0,1-3.73,6.11l-.13.19a27.28,27.28,0,0,0-2.33,3.59l-.62,1.58.64-.38a3.91,3.91,0,0,0-.74,1.1c-.54,1.09.1.74.69.62.34-.16.27.36.73,0l-.6.74c.11.13.65-1,.7-.6a8.24,8.24,0,0,0-.68.93c.25,0,.87-1,1-.81-.09.19-.89.66-.72.89,0,0,.27-.25.39-.4-.65,1-.85,1.66,0,1-.23.29-.65.64-.86,1h0c.12-.15.38-.38.49-.52l-.42.52.16,0a3.17,3.17,0,0,0,.36-.37l-.28.35a3,3,0,0,0,.43-.14,7.82,7.82,0,0,0,1.16-.78C169.9,68.86,171.31,67.11,172.69,65.19Z"/><path class="cls-1" d="M84,40.47c0,.1.33.15-.13.28-1.45.36-2.68.21-4.14.51l-.08.18c-1.15.09-2.35.14-3.57.18-2.23.25-4.53.41-6.89.73.07,0,.11.1-.13.15-1,.15-2.35.27-3.8.55l-.63.16c-.15.08-.18.14-.2.18-.65.15-1.23.29-1.77.44a35.17,35.17,0,0,0-9.32,5.36c-2.79,2.14-5.56,4.31-8.46,6.66-1.17,1-2.34,2.12-3.49,3.1-1.73,1.42-4,3.18-5.62,4.65.59.18-3,4.07-1.82,3.75a14.58,14.58,0,0,0-2.39,2.81,2.64,2.64,0,0,1-.26,1.48A13.14,13.14,0,0,1,30.58,73c-.29.57-.67,1.23-1.13,2-.36.63-.91,1.35-1.33,2a12.35,12.35,0,0,0-.87,1.48c-.26.76,1.23-1.43,1-.66a53.68,53.68,0,0,1,10.12-12A128.25,128.25,0,0,1,51.18,55.81c.74-.59,2.62-2,5.07-3.72a28,28,0,0,1,8.91-4.33c3.45-.87,7.36-1,10.85-1.34s6.37-.78,8-1l.6-.12a62.2,62.2,0,0,0,11-2.89c1.33-.55,2.67-1.16,4-1.79-.67.14-1.29.24-1.83.32A21.79,21.79,0,0,0,101,39.67c2.84-1.34,1.07-1-.18-.93-.86.14.13-.5-1.18-.21.91-.31,1.35-.5,2.26-.83,0-.18-2.74,1.13-2.21.64.89-.26,1.82-.72,2.72-1.07-.39-.06-3.14,1.11-3.08.84.47-.2,2.63-.66,2.7-1a8.55,8.55,0,0,0-1.33.44c2.72-1.14,4.1-2,1.52-1.28.86-.33,2.11-.74,3-1.16h0l-1.67.64,1.54-.65h-.31c-.4.14-.79.28-1.19.44l1-.42c-.29,0-.61.07-1,.13-1.28.35-2.54.57-3.2.81A105.57,105.57,0,0,1,84,40.47Z"/><path class="cls-1" d="M146.39,29.06c.05.09.33,0,0,.3-1,.83-2.06,1.16-3.07,2l0,.18c-.86.52-1.77,1-2.7,1.56-1.6,1.1-3.2,2.17-4.82,3.19.07,0,.12.06,0,.17a28.35,28.35,0,0,1-2.65,1.45l-.43.26a.28.28,0,0,0-.11.2l-1.26.57a78.41,78.41,0,0,1-16.21,6.75c-1.26.43-2.52.88-3.77,1.18-1.85.45-4.27.73-6.11,1,.38.55-4.09,1.43-3.12,1.89a14.25,14.25,0,0,0-3.18.52c-.23.51-1.12,1.2-4.41,1.81-1.29.2-3.29.16-3.74.3-.7.22,1.71.19,1,.41,4.83-.33,9.57-.83,14.32-1.59a121.45,121.45,0,0,0,14.27-3.09,96.71,96.71,0,0,0,14-5.7,140.59,140.59,0,0,0,14.21-9l.42-.31c2.55-1.77,5.62-4,7.63-5.76.9-.83,1.79-1.7,2.68-2.57-.51.27-1,.51-1.42.71a19.16,19.16,0,0,0,2.33-1.86c2-1.84.58-1.13-.46-.82-.69.31-.06-.5-1.08.06l1.65-1.25c0-.18-2,1.63-1.67,1.06.67-.43,1.31-1.06,2-1.56-.35,0-2.31,1.69-2.34,1.44.32-.31,2-1.19,2-1.5a6.84,6.84,0,0,0-1,.69c2-1.63,2.87-2.71.88-1.5.64-.49,1.59-1.11,2.22-1.68h0l-1.24.92,1.13-.9-.27.07c-.3.2-.59.41-.89.64l.75-.59c-.24.08-.5.19-.79.31-1,.58-2,1.05-2.49,1.42C154.63,23.35,150.49,26.17,146.39,29.06Z"/><path class="cls-1" d="M183.32,41.11c.09.06.24,0,.18.19-.23.61-.76.93-1,1.57l.13.11c-.28.43-.57.87-.85,1.34a26.79,26.79,0,0,0-.87,2.77c.06,0,.12,0,.11.09-.09.39-.29.89-.47,1.43l0,.24a.21.21,0,0,0,.1.12,6.15,6.15,0,0,1-.22.65c-.4,2.71-.58,5.39-1,8.24a12,12,0,0,1-.16,1.82,17.77,17.77,0,0,1-1,2.61c.6.09.05,2.12.74,2-.24.52-.63,1.3-.5,1.41.38.33.71,1,.22,2.53-.23.59-.89,1.31-.92,1.54,0,.38.71-.52.67-.14a34,34,0,0,0,3-6.21,60.91,60.91,0,0,0,2-6.57,64.22,64.22,0,0,1,1.38-6.54,32.31,32.31,0,0,1,1.29-4,19.33,19.33,0,0,1,1.24-2.58l.1-.19a28.9,28.9,0,0,0,2-3.81c.18-.56.33-1.16.47-1.76-.21.2-.42.37-.61.52a4.28,4.28,0,0,0,.6-1.29c.33-1.27-.24-.72-.8-.47-.31.23-.34-.3-.73.09l.43-.83c-.12-.11-.43,1.07-.56.72a5.3,5.3,0,0,0,.46-1c-.24,0-.62,1.12-.8,1,.06-.19.73-.79.51-1-.05,0-.2.29-.29.45.41-1.05.35-1.69-.29-.9a5.75,5.75,0,0,0,.51-1.06h0l-.29.58.22-.55-.14.06a1.71,1.71,0,0,0-.22.4l.15-.37a3.48,3.48,0,0,0-.36.22,8.19,8.19,0,0,0-.86.89C185.93,37.15,184.55,39,183.32,41.11Z"/><path class="cls-2" d="M173.69,45.24c.1,0,.21-.06.24.09,0,.47-.39.77-.37,1.24l.15.06c-.13.34-.29.68-.46,1-.14.69-.26,1.37-.42,2.05.06,0,.12,0,.12.08a5.65,5.65,0,0,1-.35,1.06l0,.18a.22.22,0,0,0,.1.11,4.15,4.15,0,0,1-.2.47A62.38,62.38,0,0,1,171,58.08a11.55,11.55,0,0,1-.3,1.49,19.89,19.89,0,0,1-1.1,2c.57.17,0,1.81.69,1.78-.22.41-.58,1-.45,1.13.37.32.7.92.35,2.15-.18.47-.72,1-.72,1.22s.61-.38.61-.07a75.14,75.14,0,0,0,5-9.77c.14-.64,1-2.95,1.8-5.46s1.35-5.23,1.59-6.34l0-.2c.09-.62.2-1.3.23-2a12,12,0,0,0-.07-1.85c-.13-.49-.29-1-.44-1.47a5.89,5.89,0,0,1-.29.61,3,3,0,0,0-.07-1.16c-.29-1-.55-.42-.93,0-.16.28-.43-.09-.6.34,0-.3,0-.46,0-.77-.16,0,.12,1-.16.74a4.2,4.2,0,0,0-.06-.93c-.21.12,0,1.06-.27,1,0-.16.27-.85,0-.9-.06,0-.05.29-.05.44-.13-.93-.41-1.41-.66-.56a8.39,8.39,0,0,0,0-1h0c0,.15-.05.42,0,.56v-.52l-.11.1a1.74,1.74,0,0,0-.05.39v-.34a2.79,2.79,0,0,0-.24.31,4.77,4.77,0,0,0-.38,1A45.12,45.12,0,0,1,173.69,45.24Z"/><path class="cls-2" d="M141.13,40.76c.06.08.22.09.1.24-.38.42-1,.44-1.35.87L140,42l-1.24.65c-.68.55-1.35,1.1-2,1.66.05,0,.1.07,0,.14a12.23,12.23,0,0,1-1.12.78l-.17.16a.24.24,0,0,0,0,.15l-.53.34c-1.86,1.74-3.76,3.53-5.88,5.39a11.74,11.74,0,0,1-1.26,1.28c-.67.51-1.63,1-2.34,1.44.42.41-1.13,1.73-.49,2-.47.28-1.19.7-1.14.86.15.49.08,1.19-1,2.21-.46.36-1.33.64-1.45.83s.82-.09.62.21a126.23,126.23,0,0,0,10.78-6.91c.54-.52,2.85-2.21,5.24-4s4.87-3.7,5.92-4.45l.18-.15a14,14,0,0,0,3.24-3.23,13,13,0,0,0,.81-1.73,6.73,6.73,0,0,1-.7.45,3.63,3.63,0,0,0,.78-1.25c.43-1.28-.2-.73-.76-.53-.32.19-.31-.32-.73,0a8.65,8.65,0,0,0,.47-.76c-.1-.1-.48,1-.58.63a3.93,3.93,0,0,0,.49-.93c-.23,0-.66,1-.82.83.06-.17.75-.67.53-.86,0,0-.2.26-.29.4.43-1,.32-1.52-.27-.85a3.74,3.74,0,0,0,.45-.92h0c-.06.14-.19.38-.25.51.08-.16.12-.33.19-.49l-.14,0a3.72,3.72,0,0,0-.19.34c0-.1.08-.21.12-.31a2.68,2.68,0,0,0-.33.18c-.31.3-.69.5-.81.68A18.58,18.58,0,0,1,141.13,40.76Z"/><path class="cls-2" d="M164,49.86c.1,0,.22,0,.22.13-.05.39-.47.56-.52.95l.14.09-.56.78c-.2.56-.39,1.13-.56,1.71.06,0,.11,0,.11.08a5.26,5.26,0,0,1-.39.89l0,.16a.24.24,0,0,0,.1.1,3.94,3.94,0,0,1-.2.41,33.59,33.59,0,0,0-.65,5.76,8.23,8.23,0,0,1,.12,1.27,11.41,11.41,0,0,1-.46,1.81c.59,0,.49,1.45,1.12,1.36-.12.37-.34.92-.2,1,.41.26.88.75.58,2-.17.47-.77,1-.79,1.18s.65-.34.62,0a12.43,12.43,0,0,0,2-4.82c.34-1.53.51-3,.85-4.22a16.23,16.23,0,0,1,1.08-4c.68-1.85,1.51-3.86,1.87-4.7l.05-.16a9.53,9.53,0,0,0,.73-3c0-.42-.09-.85-.16-1.27a5.5,5.5,0,0,1-.39.42,2,2,0,0,0,.13-.95c-.08-.88-.46-.45-.91-.22-.21.19-.41-.16-.65.14l.15-.6c-.16-.06-.07.76-.3.54a2.6,2.6,0,0,0,.11-.74c-.22,0-.24.82-.45.74,0-.14.43-.62.17-.71-.05,0-.11.22-.13.33.06-.75-.17-1.17-.55-.57a4.71,4.71,0,0,0,.2-.76h0c0,.12-.11.31-.13.42l.07-.4-.12.06a1,1,0,0,0-.11.29l.05-.26a1.81,1.81,0,0,0-.29.19,4.55,4.55,0,0,0-.56.69C165,47.21,164.51,48.51,164,49.86Z"/><path class="cls-2" d="M150.16,115.89c-.08-.06-.26,0-.15-.22.39-.68,1-1,1.42-1.67l-.1-.14,1.28-1.4c.66-1,1.29-2,1.89-3-.07,0-.12,0-.08-.13.23-.44.64-1,1-1.58l.14-.28a.2.2,0,0,0-.05-.16c.17-.27.32-.51.47-.73a63,63,0,0,0,3.75-10.12,20,20,0,0,1,.53-2.28A22.77,22.77,0,0,1,161.84,91c-.64-.12.45-2.56-.29-2.41.39-.64,1.09-1.53,1-1.67-.24-.43-.44-1.32,1.08-3.06a7.23,7.23,0,0,1,1.24-.88,5.27,5.27,0,0,0,.93-.56c.35-.39-1.19.31-.84-.08a13.77,13.77,0,0,0-3.81,3.32,21.86,21.86,0,0,0-2.48,4c-1.33,2.69-2.21,5.38-3.29,7.86a40.7,40.7,0,0,1-3.57,7.46,73.15,73.15,0,0,1-5.31,7.79l-.17.24a47.12,47.12,0,0,0-3.19,4.49c-.34.64-.65,1.3-1,2,.29-.2.55-.38.79-.53a7.21,7.21,0,0,0-1,1.4c-.78,1.36,0,.86.67.64.4-.22.24.39.8,0l-.78.93c.09.15.88-1.21.87-.78a13.23,13.23,0,0,0-.9,1.16c.28,0,1.12-1.25,1.24-1.06-.12.24-1.09.88-.93,1.12,0,0,.34-.32.5-.51-.88,1.22-1.2,2-.11,1.15a16.35,16.35,0,0,0-1.1,1.22h0c.17-.19.48-.49.63-.67l-.55.66.18,0a4,4,0,0,0,.46-.46l-.36.43a3.36,3.36,0,0,0,.5-.21,10.86,10.86,0,0,0,1.4-1C146.42,120.54,148.35,118.27,150.16,115.89Z"/><path class="cls-1" d="M171.77,80.08c.09,0,.28-.11.17.22-.37,1-1,1.69-1.36,2.74l.12.14c-.37.76-.77,1.56-1.12,2.38-.51,1.57-.92,3.11-1.31,4.62.07,0,.13,0,.1.12-.14.64-.45,1.47-.74,2.33l-.09.38a.23.23,0,0,0,.07.18c-.13.39-.26.72-.39,1a73.52,73.52,0,0,1-4.94,13c-.41,1-.82,2-1.3,2.87-.74,1.32-1.88,2.88-2.72,4.09.62.14-1.19,3.28-.3,3a9.17,9.17,0,0,0-1.35,2.17c.26.46.29,1.42-1,3.73-.54.88-1.63,2-1.76,2.39-.21.55,1.06-.88.85-.33a145.82,145.82,0,0,0,12.52-19.27,102.41,102.41,0,0,0,4.55-11.17c.84-2.62,1.52-5.23,2.24-7.36a36.3,36.3,0,0,1,1.93-4.77l.16-.36c1-2.13,2.43-4.67,3.32-6.54.36-.85.75-1.76,1.14-2.66-.32.32-.63.62-.9.87a14,14,0,0,0,1.2-2c.94-1.88.05-1-.72-.59-.46.39-.25-.41-.9.26l.92-1.37c-.1-.15-1,1.75-1,1.22.39-.5.7-1.15,1.07-1.7-.31.07-1.32,1.87-1.45,1.67.15-.33,1.26-1.39,1.11-1.65,0-.05-.4.5-.59.77,1.05-1.74,1.45-2.82.18-1.43.36-.54,1-1.23,1.31-1.82h0l-.74,1,.65-1-.2.11a7.48,7.48,0,0,0-.54.69l.43-.63a5.48,5.48,0,0,0-.57.4,18.24,18.24,0,0,0-1.63,1.67A73.84,73.84,0,0,0,171.77,80.08Z"/><path class="cls-2" d="M63.79,66.19c0-.1-.35-.15.16-.27,1.58-.32,3-.24,4.53-.66l.08-.19c1.25-.19,2.55-.42,3.86-.67,2.37-.65,4.67-1.38,6.94-2.14-.08,0-.12-.08.1-.17.93-.34,2.26-.69,3.61-1.1l.59-.21c.14-.08.16-.15.17-.19l1.66-.47a100,100,0,0,1,9.92-3.07,81.69,81.69,0,0,1,10.78-1.76l4.79-.81a43,43,0,0,0,7.49-1.59c-.25-.22.92-.84,1.92-1.54S122.25,50,121.64,50a13.67,13.67,0,0,0,3.23-2c0-.62.69-1.62,3.62-4.2,1.18-1,3.17-2.3,3.54-2.72.58-.66-1.79,1-1.21.32-4.55,3.5-9,6.77-13.84,8.43s-10.5,1.74-16.47,2.28c-1,.16-3.54.46-6.75,1.17s-7.1,1.82-11,3.05-7.75,2.48-11.11,3.37a62.87,62.87,0,0,1-7.81,1.63l-.6.09c-3.61.49-8.26,1-11.48,1.94a41.45,41.45,0,0,0-4.31,1.63c.7-.13,1.36-.22,1.93-.28a19,19,0,0,0-3.48,1.19c-3,1.39-1.12,1,.16.92.9-.13-.14.51,1.22.23-.94.31-1.41.47-2.34.83-.06.17,2.84-1.14,2.28-.64a24.06,24.06,0,0,0-2.8,1.08c.39,0,3.23-1.14,3.16-.86-.49.2-2.71.66-2.78,1A10.85,10.85,0,0,0,46.21,68a13.62,13.62,0,0,0-2.81,1.4c-.36.29-.06.29,1.26-.11a30.24,30.24,0,0,0-3,1.29h0c.45-.22,1.25-.55,1.68-.73-.52.23-1,.47-1.55.72l.32,0c.39-.16.79-.31,1.19-.49l-1,.47c.29,0,.62-.1,1-.18,1.29-.4,2.56-.63,3.23-.88a48.15,48.15,0,0,1,8.37-2.1C57.71,66.88,60.71,66.62,63.79,66.19Z"/><path class="cls-4" d="M157.51,122.15c0,12.85,1.76,29.36-4.24,39.74-6.2,10.7-18.45,22.74-29.16,28.94-10.37,6-26.81,4.41-39.66,4.41s-22.75-9.7-33.13-15.7c-10.7-6.2-17.74-13.75-23.94-24.45-6-10.38-5.48-20.09-5.48-32.94s2-21.13,8-31.51c6.19-10.71,8.84-23,19.55-29.2,10.37-6,22.19.25,35,.25s21.38-.57,31.76,5.44c10.71,6.19,24.18,8.44,30.37,19.15C152.58,96.66,157.51,109.3,157.51,122.15Z"/><path class="cls-5" d="M142.07,125.29c0,11,2.27,25.7-2.85,34.56C133.93,169,123,179.71,113.86,185c-8.86,5.12-23.52,3-34.48,3s-19.1-9.2-27.95-14.32c-9.14-5.28-14.87-11.52-20.15-20.66-5.12-8.85-4.1-16.8-4.1-27.76S28.63,107.81,33.76,99c5.28-9.13,6.61-20.12,15.75-25.4,8.85-5.13,18.9,1.62,29.87,1.62S97.1,74.12,106,79.24c9.14,5.28,21.3,6.23,26.58,15.36C137.65,103.45,142.07,114.33,142.07,125.29Z"/><path class="cls-6" d="M135.35,123.34c0,14.12-1.94,33.2-11.19,42.46S95.82,183.23,81.7,183.23,53,170.56,43.74,161.3s-8.89-23.84-8.89-38,4.74-23.61,14-32.86S67.58,80.2,81.7,80.2s21.59,3,30.84,12.3S135.35,109.22,135.35,123.34Z"/><path class="cls-5" d="M128.51,122.15a10.2,10.2,0,0,1-3.69,7.89c-2.16,1.78-5.2,1.78-8.39,1.78s-6.75.63-8.92-1.14a10.8,10.8,0,0,1,0-17,15,15,0,0,1,8.88-3.06c3.19,0,6.09,2.05,8.25,3.83A10,10,0,0,1,128.51,122.15Z"/><path class="cls-5" d="M52.28,145.38a10.22,10.22,0,0,1-3.69,7.89c-2.16,1.78-5.19,1.78-8.39,1.78s-6.75.63-8.91-1.15a10.78,10.78,0,0,1,0-17,14.91,14.91,0,0,1,8.88-3.06c3.2,0,6.09,2,8.25,3.83A10,10,0,0,1,52.28,145.38Z"/><path class="cls-5" d="M104.34,170.81a8.5,8.5,0,0,1-3.08,6.57c-1.8,1.49-4.33,1.49-7,1.49s-5.63.53-7.43-1a9,9,0,0,1,0-14.17,12.46,12.46,0,0,1,7.4-2.55c2.66,0,5.07,1.71,6.87,3.19A8.33,8.33,0,0,1,104.34,170.81Z"/><path class="cls-5" d="M83.5,117.88a12.32,12.32,0,0,1-2,7.1c-1.39,2-4,2.39-6.36,3.49-2.13,1-4.08,3.92-6.69,3.92a19.13,19.13,0,0,1-7.7-1.78,17.06,17.06,0,0,1-6.13-5.08,14.47,14.47,0,0,1-2.43-7.65c0-2.55,2-4.91,3.45-6.93s3.88-2.39,6.2-3.5a14.23,14.23,0,0,1,6.61-1.62c2.6,0,5-.6,7.19.42,2.31,1.1,5.32,2,6.71,3.94S83.5,115.33,83.5,117.88Z"/><path class="cls-7" d="M79.37,117.88A9.23,9.23,0,0,1,76,125c-2,1.61-4.71,1.62-7.61,1.62s-6.12.57-8.08-1a9.77,9.77,0,0,1,0-15.43,13.49,13.49,0,0,1,8-2.78c2.9,0,5.52,1.86,7.48,3.47A9.05,9.05,0,0,1,79.37,117.88Z"/><path class="cls-7" d="M66,170.81a3.42,3.42,0,0,1-3.58,3.2,3.18,3.18,0,0,1-3.31-3.2,3.39,3.39,0,0,1,3.31-3.45A3.63,3.63,0,0,1,66,170.81Z"/><path class="cls-7" d="M101.55,170.81a6.5,6.5,0,0,1-2.35,5C97.82,177,95.89,177,93.85,177s-4.31.4-5.69-.73a7.67,7.67,0,0,1-2.64-5.44,7.59,7.59,0,0,1,2.66-5.41,9.5,9.5,0,0,1,5.67-2c2,0,3.88,1.3,5.26,2.44A6.35,6.35,0,0,1,101.55,170.81Z"/><path class="cls-7" d="M49.86,145.79A8.22,8.22,0,0,1,46.64,152c-1.79,1.34-4.21,1.24-6.77,1.14s-5.41.27-7.08-1.22a9.64,9.64,0,0,1-3-7,9.54,9.54,0,0,1,3.62-6.63,11.94,11.94,0,0,1,7.2-2.15c2.56.11,4.8,1.85,6.46,3.34A8,8,0,0,1,49.86,145.79Z"/><path class="cls-7" d="M118.85,122.15c0,3.12-2.88,5.75-6.44,5.75a5.71,5.71,0,0,1-5.94-5.75,6.08,6.08,0,0,1,5.94-6.2A6.53,6.53,0,0,1,118.85,122.15Z"/><rect class="cls-8" x="36.08" y="116.3" width="11.68" height="16.6" transform="translate(-89.52 127) rotate(-72.45)"/><g class="cls-9"><path class="cls-7" d="M44.15,120.38v0c0-.1-.11,0-.1-.09S44.14,120.32,44.15,120.38Z"/><path class="cls-7" d="M37.76,117.36l0,.1c-.13,0-.14-.13-.18-.18s0-.16.07-.16S37.77,117.25,37.76,117.36Z"/><path class="cls-7" d="M39,119.14c.17,0,0,.29.27.21,0,0,0-.16.08-.16a2.86,2.86,0,0,0,1.58-.24c-.09.08,0,.27-.15.34s-.69,0-.57.43a1.45,1.45,0,0,1-.48,1c0,.56.78.36.87.91a.33.33,0,0,1-.29.16c-.31,0-.5-.31-.8-.22,0,.13,0,.28-.07.39-.31.27-.59.62-.86.82-.11-.15-.06-.37-.2-.47-.09.11-.28,0-.31.18-.13,0-.21-.12-.26-.22s-.14.66-.34.38c-.15,0,0-.2,0-.26a.25.25,0,0,0,.13,0c-.09-.42,0-.83,0-1.24-.35-.1-.62.24-1,.25,0-.11.24-.13.31-.23l.08-.29c-.33-.18-.14-.49-.32-.7.07,0,.19.06.28,0s.15-.26.36-.25c0-.15-.12-.3-.15-.45s-.23-.19-.4-.19.1-.14.09-.23c.28.16.54.45.88.48,0-.21.2.09.22-.13l-.08-.16c.07,0,.12,0,.15-.07a1.61,1.61,0,0,0-.15-.33c.07,0,.18.07.26,0v-.23a.71.71,0,0,0,.41.45c.09-.06,0-.2,0-.21s0,.16.1.18a1,1,0,0,0,.29-.74c0,.08.07,0,.11,0A4.64,4.64,0,0,0,39,119.14Z"/><path class="cls-7" d="M45.16,121.25c.22.27.1.51,0,.8-.17.06-.34.23-.5.22,0-.24-.46-.08-.33-.37-.24,0-.1-.27-.09-.4s.19-.27.33-.34.2,0,.29-.06S45,121.36,45.16,121.25Z"/><path class="cls-10" d="M44.86,121.35c-.1,0-.08,0-.07-.1S44.75,121.36,44.86,121.35Z"/><path class="cls-10" d="M44.74,121.41c-.18,0-.1.15-.2.26.08-.07.07,0,.15,0s-.16,0-.12.13c0,0,.13.07.15-.05.08.15-.25.17-.2.26,0-.1,0-.16,0-.25s-.11,0-.16,0c.1,0,.1-.09.07-.22,0,0,0,.08.05.08s0-.07,0-.1,0,0,0,.05,0-.13,0-.19,0,.1.15.07,0-.08,0-.11Z"/><path class="cls-10" d="M44.81,121.47s0,0,0-.06c0,.13.16,0,0,.14.09-.07.19.06.24,0l0,.13s0,0,0,0,0,.17.07.15l-.16.07s.09,0,0-.08,0,.16,0,.21-.28,0-.3.14c0-.13,0-.15.06-.3s0,.16.12.07v-.07s0,0,0,0,.08-.14,0-.21-.09,0-.18,0c.18.07.13-.2.06-.29S44.72,121.45,44.81,121.47Z"/><path class="cls-7" d="M45.05,121.55l-.06,0Z"/><polygon class="cls-7" points="44.49 121.71 44.49 121.58 44.53 121.6 44.49 121.71"/><path class="cls-7" d="M36.49,119.07l0,.12Z"/><path class="cls-10" d="M44.45,121.79c-.17.07.13,0,0,.13-.06-.1-.17,0-.08-.15Z"/><path class="cls-7" d="M36.69,119.69c0,.1-.2.11-.16,0S36.69,119.57,36.69,119.69Z"/><path class="cls-7" d="M48.82,123.7c.07.14.34.18.32.33s-.11.09-.08.17.18,0,.21.12c-.2.28,0,.31-.09.62.07.11.24.07.37.06s-.09,0-.13,0a8.35,8.35,0,0,0,1,.16c-.07,0-.06.15,0,.16l-.7,0a2.28,2.28,0,0,0-.36,1.68c0,.18.36.14.18.32-.34.06-.49-.45-.79-.33a7.8,7.8,0,0,1-.9.6c-.23,0,0-.39-.34-.25,0,.07,0,.16-.08.2s0-.32-.2-.31,0,.21-.19.16.1-.23-.07-.31c-.17-.25-.22.12-.38.06a.32.32,0,0,1,.07-.26.91.91,0,0,0-.29-.34.46.46,0,0,1-.22.15c0-.18.17-.38.11-.59s-.19.12-.27-.06.24-.13.25-.26l-.18-.22c.15-.53.56-.86.64-1.42a2,2,0,0,0,.66-.68c.1.1.16.19.31.17s.14-.13.2-.19.09.11.18.1l.15-.15c.11.11.18.25.32.27s.17-.09.24-.15S48.81,123.64,48.82,123.7Z"/><path class="cls-7" d="M35,119.75a.21.21,0,0,1-.19,0C34.78,119.65,34.92,119.67,35,119.75Z"/><path class="cls-7" d="M45.49,124.24c.16,0,.08.18.2.19,0,.21.24.32.07.54,0,.31-.34.12-.38.41-.26,0-.65.12-.85-.27-.19-.14.13-.35-.16-.4.06,0,.16-.07.19-.17s-.08-.15,0-.2.31-.06.28-.23c.11.1.22,0,.29-.08C45.14,124.32,45.44,124,45.49,124.24Z"/><rect class="cls-10" x="45.09" y="124.32" width="0.07" height="0.01" transform="translate(-87.02 129.85) rotate(-72.45)"/><path class="cls-10" d="M45,124.38c0,.17-.08,0-.12.13.11-.14-.07,0-.09-.11s.06.06.14,0l.06-.15,0,.09Z"/><polygon class="cls-10" points="45.31 124.51 45.27 124.46 45.3 124.47 45.31 124.51"/><path class="cls-10" d="M45.51,124.71c0,.05,0,0-.07,0Z"/><polygon class="cls-10" points="44.76 124.58 44.85 124.58 44.77 124.61 44.76 124.58"/><polygon class="cls-10" points="44.84 124.77 44.81 124.67 44.84 124.74 44.84 124.77"/><path class="cls-10" d="M44.77,124.8l0,.06Z"/><path class="cls-10" d="M45,124.9,45,125Z"/><path class="cls-10" d="M45,125l0,.08Z"/><path class="cls-7" d="M41.77,126.9c-.09,0-.21.08-.24,0s.07-.17.15-.16S41.83,126.83,41.77,126.9Z"/><path class="cls-7" d="M41.74,127.57c-.09.37.41.5.47.87,0,.17-.21.07-.24.23s.14.09.21.1-.24,0-.23.16a1,1,0,0,0,.15.41c-.15.27-.86.12-.56.6-.09-.06-.11-.21-.22-.21s0,.48-.26.35c0-.05-.07-.1-.13-.05s0,.31-.13.34c-.12-.19-.37-.25-.37-.5s-.28,0-.37,0,0-.36-.24-.47a.65.65,0,0,1-.56,0c.19-.15,0-.27-.1-.35.31-.23-.14-.52.09-.73-.07,0-.16,0-.18,0s.29.09.34-.13.16-.16.09-.28-.19,0-.13-.12c.21,0,.39-.24.57-.38s.19.16.29,0-.09-.15,0-.24c.38,0,.87.31,1.32.11A.41.41,0,0,1,41.74,127.57Z"/><path class="cls-7" d="M43,124a.36.36,0,0,1-.14.36c-.1.08-.22,0-.29.09,0-.11-.16-.08-.19-.16a.4.4,0,0,1,0-.37c.11-.1.27-.28.43-.19S42.88,123.89,43,124Z"/><path class="cls-10" d="M42.53,123.94c-.09,0-.11-.06-.07-.12s.09-.11.2,0A.19.19,0,0,1,42.53,123.94Z"/><path class="cls-10" d="M42.69,123.88l0,0Z"/><path class="cls-10" d="M42.76,124.22l0-.07,0,0s.05-.11.1-.14S42.92,124.28,42.76,124.22Z"/><path class="cls-10" d="M42.43,124.2s.18-.15.25,0c-.18-.14,0,.15-.16.17l0-.09c-.13.13-.13-.08-.19-.13s0,0,0,0,.06-.08,0-.11,0,0,0,0C42.56,124,42.41,124.1,42.43,124.2Z"/><path class="cls-10" d="M42.33,124.05l0,0s0-.07.09,0Z"/></g><rect class="cls-8" x="66.37" y="135.98" width="31.59" height="22.23" transform="translate(-79.6 99.97) rotate(-44.57)"/><g class="cls-9"><path class="cls-7" d="M77,139.59l.06,0c-.16-.09-.18.15-.24.09S76.93,139.55,77,139.59Z"/><path class="cls-7" d="M66.27,147.65l.14.14c-.07.25-.34.12-.46.14s-.31-.06-.22-.25S66.09,147.54,66.27,147.65Z"/><path class="cls-7" d="M70.36,147.2c0-.34.48.27.59-.27,0-.12-.3-.09-.21-.29a5.35,5.35,0,0,0,1-2.86c.07.21.44.27.44.56,0,.46-.53,1.19.22,1.34a2.69,2.69,0,0,1,1.29,1.7c1,.42,1.29-1,2.31-.64a.65.65,0,0,1,0,.62c-.25.54-1,.57-1.09,1.15.21.15.49.22.6.47.17.75.52,1.54.61,2.17-.34,0-.68-.22-1-.08.11.25-.29.46,0,.68,0,.26-.39.24-.6.24-.11.36,1,.83.33.91-.15.25-.32-.18-.43-.21a.57.57,0,0,0,0-.25c-.78-.22-1.37-.78-2.13-1-.47.5-.16,1.25-.46,1.87-.15-.14,0-.5-.11-.71l-.42-.4c-.59.41-1-.2-1.46-.08,0-.13.27-.27.3-.45.36-.31-.3-.48-.1-.82-.21-.21-.6-.07-.89-.15-.2.27-.54.21-.68.5s-.14-.29-.3-.34c.52-.34,1.23-.51,1.58-1.06-.32-.25.34-.27,0-.48l-.34,0a.2.2,0,0,0,0-.31,3.85,3.85,0,0,0-.69-.06c.07-.1.27-.23.22-.42l-.4-.22a1.32,1.32,0,0,0,1.13-.29c0-.2-.34-.17-.32-.26s.3.1.39,0a1.93,1.93,0,0,0-1-1.15c.15.07.06-.13.11-.18A10.82,10.82,0,0,0,70.36,147.2Z"/><path class="cls-7" d="M79.4,138.68c.64-.14.94.28,1.33.74-.06.34.08.77-.08,1-.45-.13-.54.71-.91.22-.2.41-.54-.07-.77-.2a1.1,1.1,0,0,1-.28-.86c.08-.18.22-.32.17-.55C79,139,79.45,139,79.4,138.68Z"/><path class="cls-10" d="M79.3,139.27c0,.19-.16.09-.23,0C79.18,139.14,79.21,139.46,79.3,139.27Z"/><path class="cls-10" d="M79.3,139.52c-.23.26.16.3.25.57-.06-.2,0-.16.12-.27.09.2-.16.27.11.33,0,0,.23-.16,0-.31.32,0,.07.58.25.58-.13-.17-.25-.15-.41-.24s-.13.16-.22.21c0-.19-.07-.25-.3-.3,0,0,.15,0,.16,0s-.1-.07-.14-.11,0,0,.09,0c.09-.3-.19-.16-.32-.18,0,0,.22,0,.25-.17s-.12-.1-.16-.17Z"/><path class="cls-10" d="M79.46,139.47c0-.06,0-.13-.07-.15.2.17.22-.24.29,0,0-.21.27-.26.2-.41l.19.16s0,0-.11,0c0,.16.29.15.31,0l0,.34c0,.06,0-.19-.11-.11-.09.31.27.13.36.19-.17.19-.29.46,0,.64l-.45-.38c0-.23.27.13.22-.14l-.13-.06s.06,0,.07,0c-.16-.05-.17-.25-.37-.16,0,.2,0,.16-.09.34.29-.25-.21-.39-.43-.36C79.39,139.39,79.34,139.59,79.46,139.47Z"/><path class="cls-7" d="M79.8,139.13l0,.12Z"/><polygon class="cls-7" points="79.58 140.2 79.37 140.09 79.42 140.04 79.58 140.2"/><path class="cls-7" d="M68,151.32l.23.05Z"/><path class="cls-10" d="M79.69,140.34c0,.36,0-.25.21.11-.21,0-.15.29-.32,0Z"/><path class="cls-7" d="M69.24,151.52c.17.08,0,.45-.15.29S69,151.43,69.24,151.52Z"/><path class="cls-7" d="M86.78,134.7c.28,0,.61-.42.84-.26-.06.16,0,.27.21.29s.2-.27.39-.25c.3.59.52.27,1,.72.25,0,.33-.35.43-.56.13.09-.07.14,0,.23.52-.41.7-1.09,1.19-1.56-.06.12.19.23.21.21l-.67,1.16a4.32,4.32,0,0,0,2.5,2.1c.3.17.56-.47.7,0-.2.62-1.18.42-1.26,1a13.29,13.29,0,0,1,.22,2c-.15.43-.7-.27-.72.35.09.09.25.15.27.31-.22.1-.54-.29-.72.06,0,.2.32.25.11.47s-.31-.38-.59-.17c-.57.07,0,.48-.24.7-.16,0-.3-.2-.37-.35a1.82,1.82,0,0,0-.82.18.9.9,0,0,1,0,.51c-.29-.18-.48-.62-.89-.72s0,.43-.34.41c-.11-.18,0-.52-.23-.66l-.52.12c-.76-.74-1-1.72-1.82-2.35a4,4,0,0,0-.56-1.72c.25-.07.47-.1.56-.37s-.09-.34-.14-.5.27-.05.32-.21l-.1-.39c.27-.09.57-.07.73-.3s0-.36,0-.54C86.53,134.59,86.67,134.67,86.78,134.7Z"/><path class="cls-7" d="M67.79,154.51a.34.34,0,0,1-.2.3C67.48,154.7,67.63,154.49,67.79,154.51Z"/><path class="cls-7" d="M84.71,140.77c.11-.28.38,0,.51-.17.31.29.75-.1,1,.38.5.29-.11.68.35,1-.32.39-.38,1.19-1.2,1.19-.41.19-.48-.52-.82-.08a.62.62,0,0,0-.12-.48c-.09-.09-.32,0-.36-.15s.18-.57-.14-.68c.27-.08.24-.33.13-.55C84.55,141.43,84.2,140.61,84.71,140.77Z"/><rect class="cls-10" x="84.52" y="141.4" width="0.02" height="0.13" transform="translate(-74.97 100.01) rotate(-44.57)"/><path class="cls-10" d="M84.51,141.75c.34.06-.09.13.12.31-.15-.31,0,.14-.26.05,0-.22.14,0,.19-.2l-.19-.23.16,0Z"/><polygon class="cls-10" points="85.01 141.33 84.89 141.34 84.94 141.29 85.01 141.33"/><path class="cls-10" d="M85.53,141.17c.06.09,0,.07-.09.09Z"/><polygon class="cls-10" points="84.63 142.31 84.72 142.15 84.7 142.31 84.63 142.31"/><polygon class="cls-10" points="85.02 142.34 84.85 142.31 84.99 142.31 85.02 142.34"/><path class="cls-10" d="M85,142.49l.13,0Z"/><path class="cls-10" d="M85.44,142.12v0Z"/><path class="cls-10" d="M85.54,142.33l.14,0Z"/><path class="cls-7" d="M85.88,149.4c0,.16,0,.43-.27.37a.26.26,0,0,1-.14-.39C85.6,149.25,85.83,149.24,85.88,149.4Z"/><path class="cls-7" d="M87,150.05c.55.49,1.22-.24,1.89,0,.31.12-.07.43.18.61.11-.11.27-.16.34-.27,0,.14-.2.41.07.54a1.9,1.9,0,0,0,.82.11c.33.48-.57,1.55.52,1.47-.18.1-.46,0-.55.19s.81.4.35.75c-.11,0-.24,0-.2.16,0,.34.53.25.46.54-.43,0-.75.39-1.18.17-.3.08-.18.5-.29.64-.31.33-.64-.26-1,0a1.21,1.21,0,0,1-.49.94c-.08-.44-.48-.16-.67-.15-.11-.71-1-.22-1.14-.79-.07.11-.09.3-.25.25,0-.27.41-.41.07-.68-.17-.07-.12-.41-.39-.39-.12,0-.21.28-.32.1.17-.37,0-.87-.11-1.3,0-.27.43-.18.23-.48-.12-.09-.34,0-.42-.18.43-.61,1.29-1.21,1.37-2.14A.75.75,0,0,1,87,150.05Z"/><path class="cls-7" d="M82,144.82a.68.68,0,0,1,.48.55c0,.24-.24.34-.11.57-.18-.1-.27.2-.43.18s-.5,0-.66-.24-.25-.71.06-.91S81.8,144.85,82,144.82Z"/><path class="cls-10" d="M81.59,145.49c-.08.15-.2.13-.27,0,.23-.12-.11-.25.13-.38A.4.4,0,0,1,81.59,145.49Z"/><path class="cls-10" d="M81.62,145.17l0,.11Z"/><path class="cls-10" d="M82.27,145.35l-.15,0,0,.05s-.14-.18-.14-.28C82.09,145.18,82.5,145.12,82.27,145.35Z"/><path class="cls-10" d="M81.94,145.89s-.1-.43.15-.46c-.4.17.23.19.14.42l-.13-.12c.11.32-.25.14-.37.19s0,0,0,0a.16.16,0,0,0-.18-.14s0-.09,0,0C81.73,145.49,81.74,145.83,81.94,145.89Z"/><path class="cls-10" d="M81.58,145.92l-.09.05c0-.07-.09-.12,0-.17Z"/></g><rect class="cls-8" x="78.38" y="97.33" width="14.76" height="10.39" transform="translate(-27.87 32.14) rotate(-18.31)"/><g class="cls-9"><path class="cls-7" d="M85.17,98.32v0c-.05-.07-.11,0-.12,0S85.13,98.28,85.17,98.32Z"/><path class="cls-7" d="M79,99.47l0,.09c-.08.09-.17,0-.22,0s-.12-.09,0-.15S78.94,99.39,79,99.47Z"/><path class="cls-7" d="M80.8,100.12c.09-.13.14.22.3,0s-.11-.11,0-.17c.42-.14.74-.62,1-1,0,.1.13.2.07.32s-.46.39-.18.61a1.3,1.3,0,0,1,.19,1c.32.38.74-.15,1.1.21a.29.29,0,0,1-.13.26c-.21.17-.52,0-.7.26.06.1.17.19.16.32-.08.35-.1.75-.19,1-.16,0-.24-.23-.39-.23s-.22.13-.13.29c-.08.1-.21,0-.3,0-.12.12.24.55,0,.45-.11.07-.1-.14-.14-.18a.23.23,0,0,0,.07-.1c-.28-.25-.41-.61-.68-.86-.3.11-.32.49-.58.69,0-.09.1-.21.1-.33l-.09-.25c-.34,0-.36-.28-.6-.34,0,0,.17,0,.22-.12.22-.06,0-.26.13-.36,0-.14-.24-.16-.34-.25-.14.07-.27,0-.39.07s0-.15-.06-.21a2,2,0,0,0,.88-.12c-.08-.17.2,0,.1-.2l-.14-.08s.09-.06.07-.12a1.31,1.31,0,0,0-.28-.17s.16,0,.18-.14l-.12-.17a.6.6,0,0,0,.53.11c0-.08-.1-.14-.08-.17s.11.1.17.08a.94.94,0,0,0-.18-.68c0,.06,0,0,.08-.06A3.54,3.54,0,0,0,80.8,100.12Z"/><path class="cls-7" d="M86.35,98.42c.29.08.33.31.4.59-.09.13-.12.34-.25.42-.16-.15-.37.18-.42-.1-.17.13-.21-.14-.28-.24a.52.52,0,0,1,.06-.42c.06-.06.15-.09.18-.19S86.3,98.58,86.35,98.42Z"/><path class="cls-10" d="M86.18,98.65c0,.08-.08,0-.1,0S86.11,98.71,86.18,98.65Z"/><path class="cls-10" d="M86.13,98.76c-.15.06,0,.16,0,.29,0-.1,0-.07.11-.09s-.13.08,0,.16.13,0,.09-.12c.13.07-.09.26,0,.29s-.07-.11-.12-.18-.09,0-.13,0S86,99,86,99s0,.05.07,0,0,0,0-.07,0,0,0,0,0-.11-.1-.14.09,0,.14,0,0-.07,0-.1Z"/><path class="cls-10" d="M86.21,98.77s0-.06,0-.08.14-.06.11.08c0-.1.17-.06.17-.13l.05.11s0,0-.05,0,.09.12.13.07l-.08.14s0-.08,0-.07.08.11.11.15-.22.14-.15.26c0-.1-.06-.13-.11-.25s.09.11.12,0l0-.05,0,0c-.06-.06,0-.15-.12-.15s-.06.06-.11.12c.17,0,0-.21-.11-.24C86.2,98.72,86.13,98.79,86.21,98.77Z"/><path class="cls-7" d="M86.42,98.7l0,0Z"/><polygon class="cls-7" points="86.11 99.1 86.04 99.01 86.08 99 86.11 99.1"/><path class="cls-7" d="M79,101.37l.09.07Z"/><path class="cls-10" d="M86.12,99.18c-.09.14.07-.1.07.09-.09,0-.12.09-.13-.07Z"/><path class="cls-7" d="M79.43,101.71c.06.06-.08.19-.12.09S79.37,101.63,79.43,101.71Z"/><path class="cls-7" d="M90.26,98.28c.12.06.34,0,.41.07s0,.12,0,.16.14-.07.21,0c0,.31.16.22.26.5.11,0,.21-.08.29-.15s-.06,0-.07.09c.31-.07.52-.31.82-.41,0,0,0,.14.05.13l-.52.35a2.06,2.06,0,0,0,.61,1.4c.1.13.33-.09.3.14-.22.22-.58-.07-.74.17a5.47,5.47,0,0,1-.34.9c-.14.15-.23-.26-.37,0,0,.06.08.11,0,.18s-.16-.23-.31-.12.08.18-.06.22,0-.22-.21-.19-.09.2-.24.24a.28.28,0,0,1-.09-.22,1,1,0,0,0-.38-.1.42.42,0,0,1-.08.23c-.08-.13-.07-.36-.23-.48s-.07.18-.22.1.1-.22,0-.33l-.24,0c-.17-.47,0-.92-.28-1.37a2,2,0,0,0,.12-.83c.12,0,.22,0,.31,0a2,2,0,0,1,.05-.24c.06,0,.12,0,.17,0l0-.19c.13,0,.26.09.37,0s.08-.15.1-.23S90.22,98.25,90.26,98.28Z"/><path class="cls-7" d="M78.21,102.66a.19.19,0,0,1-.15.08C78,102.68,78.14,102.62,78.21,102.66Z"/><path class="cls-7" d="M88.14,100.4c.11-.1.16.09.25,0,.07.19.33.11.33.36.15.23-.19.26-.06.5-.22.09-.41.42-.75.24-.21,0-.09-.31-.33-.2a.3.3,0,0,0,0-.23s-.13-.06-.12-.13.2-.2.08-.31c.13,0,.17-.1.17-.21C87.94,100.64,88,100.23,88.14,100.4Z"/><rect class="cls-10" x="87.92" y="100.62" width="0.01" height="0.06" transform="translate(-27.17 32.72) rotate(-18.31)"/><path class="cls-10" d="M87.85,100.77c.13.09-.06,0,0,.15,0-.16,0,0-.12,0s.07,0,.12,0l0-.14.06.06Z"/><polygon class="cls-10" points="88.15 100.69 88.1 100.68 88.13 100.67 88.15 100.69"/><path class="cls-10" d="M88.4,100.74c0,.05,0,0-.05,0Z"/><polygon class="cls-10" points="87.79 101.03 87.86 100.98 87.82 101.04 87.79 101.03"/><polygon class="cls-10" points="87.95 101.12 87.88 101.07 87.94 101.1 87.95 101.12"/><path class="cls-10" d="M87.92,101.18l0,0Z"/><path class="cls-10" d="M88.17,101.11l0,.07Z"/><path class="cls-10" d="M88.17,101.22l0,0Z"/><path class="cls-7" d="M86.85,104.26c-.06,0-.11.17-.19.1a.13.13,0,0,1,0-.2C86.76,104.14,86.86,104.18,86.85,104.26Z"/><path class="cls-7" d="M87.17,104.76c.13.32.56.15.8.38s-.12.16,0,.29a1.18,1.18,0,0,0,.2,0c0,.07-.17.13-.09.24a1,1,0,0,0,.32.22c0,.27-.55.53-.08.72-.1,0-.19-.1-.27,0s.26.34,0,.39c0,0-.1,0-.12,0s.18.22.09.32c-.19-.08-.4,0-.53-.17-.15,0-.18.17-.26.2s-.21-.23-.41-.2a.62.62,0,0,1-.4.29c0-.21-.17-.17-.26-.2.11-.32-.37-.3-.31-.57-.05,0-.1.11-.16,0s.26-.08.18-.27,0-.19-.09-.24-.14.07-.15,0c.14-.12.16-.37.22-.57s.22,0,.2-.15-.15-.06-.14-.16c.3-.17.79-.24,1-.61A.32.32,0,0,1,87.17,104.76Z"/><path class="cls-7" d="M86.18,101.54a.33.33,0,0,1,.08.33c0,.11-.17.09-.16.22-.06-.09-.16,0-.22,0s-.21-.1-.23-.23,0-.35.22-.37S86.08,101.51,86.18,101.54Z"/><path class="cls-10" d="M85.86,101.73c-.06,0-.11,0-.12,0s0-.12.13-.13S85.87,101.71,85.86,101.73Z"/><path class="cls-10" d="M85.94,101.61v0Z"/><path class="cls-10" d="M86.17,101.81l0,0v0s0-.11,0-.15S86.31,101.77,86.17,101.81Z"/><path class="cls-10" d="M85.92,102s0-.2.16-.16c-.2,0,0,.13,0,.21l0-.08c0,.15-.13,0-.2,0s0,0,0,0,0-.08,0-.09,0,0,0,0S85.85,101.91,85.92,102Z"/><path class="cls-10" d="M85.77,101.91h0s0-.07,0-.07Z"/></g></svg>