<svg id="Layer_1" data-name="Layer 1" xmlns="http://www.w3.org/2000/svg" viewBox="0 0 115.2 180.11"><defs><style>.cls-1{fill:#717373;}.cls-2{fill:#909493;}.cls-3{fill:#a0a2a1;}.cls-4{fill:#aeb3b3;}.cls-5{fill:#818484;}.cls-6{fill:#a0a4a5;}.cls-7{fill:#bfbfb6;}.cls-8{fill:#fff;opacity:0.35;}</style></defs><title>refresh</title><path class="cls-1" d="M33.5,173l3.78,7.19,16.11-.11c4.83.26,14.5,1.08,14.5,1.08l9.49-1.08,7.77-4.47-1-47.78L86,108.93l-.88-20.66L80.91,84.6s-11.5,1.05-16.53,1.57S42.9,84.6,42.9,84.6L32.4,89.51s.78,19.12,1.1,29.34-1.18,10.25-1.74,20.7S33.5,173,33.5,173Z"/><path class="cls-2" d="M35.39,171.48l3.52,6.91,15-.11c4.49.25,13.48,1,13.48,1l8.81-1L83.41,174l-.94-45.93,1.76-18.19L83.41,90l-3.94-3.52S68.78,87.49,64.1,88s-20-1.51-20-1.51l-9.77,4.72s.73,18.37,1,28.2-1.09,9.84-1.62,19.89S35.39,171.48,35.39,171.48Z"/><path class="cls-3" d="M40.2,177.14l1.58-2.33a1.62,1.62,0,0,0,.33-.67,1.64,1.64,0,0,0-.14-.81c-.49-1.35-1-2.69-1.45-4a1.24,1.24,0,0,0-.4-.63,1.46,1.46,0,0,0-1.13-.1,5.19,5.19,0,0,0-2.48,1.26,1.69,1.69,0,0,0-.64,1.13,2,2,0,0,0,.32.95c.76,1.39,1.52,2.78,2.26,4.17.18.33.24,1.19.46,1.43C39.55,178.22,39.84,177.14,40.2,177.14Z"/><path class="cls-3" d="M43.4,177.56a22.79,22.79,0,0,1,5.22-.08,9.19,9.19,0,0,0,3.43,0,6.79,6.79,0,0,0,1.72-.87l3.57-2.27c-2.86-.9-6-.07-9.08-.11-1.6,0-3.38-.23-4.65.6a5.17,5.17,0,0,0-1.35,1.53c-.18.28-.88,1-.56,1.32S43.09,177.6,43.4,177.56Z"/><path class="cls-3" d="M39.46,106.83c.09-1.21.08-2.66-1.11-3.31a2.2,2.2,0,0,0-2,0,1.48,1.48,0,0,0-.82,1.57,5.5,5.5,0,0,0,.85,1.5,5.56,5.56,0,0,1,.56,2.12l.93,7.33c.12,1-.14,5.58,1.83,5.35,0-2.43-.4-4.92-.44-7.36S39.46,109.23,39.46,106.83Z"/><path class="cls-3" d="M44.28,92.34a2.85,2.85,0,0,0,1.26-2.63A4.06,4.06,0,0,0,45,88.42a.9.9,0,0,0-.43-.43,1.08,1.08,0,0,0-.59,0,17.57,17.57,0,0,0-3.52,1.27L37.3,90.65c-.38.17-.82.41-.85.78s.25.58.52.79a2.67,2.67,0,0,0,.89.49,6.52,6.52,0,0,0,1.4.05c1,0,1.57.86,2.35.91A6.12,6.12,0,0,0,44.28,92.34Z"/><path class="cls-4" d="M72.66,174.61a1,1,0,0,0-.34-.28,1.49,1.49,0,0,0-.63-.1H70.27a3.56,3.56,0,0,0-1.35.18,1.38,1.38,0,0,0-.84,1,1.2,1.2,0,0,0,.45,1.15,7.64,7.64,0,0,0,1.85.76c.43.18.8.47,1.22.67.66.34,3.35.85,3.57-.19C75.27,177.31,73.07,175.07,72.66,174.61Z"/><path class="cls-3" d="M38.73,166.51a5.43,5.43,0,0,0,0-2.94,29.93,29.93,0,0,1-.36-6.27,2.53,2.53,0,0,0-.21-1.49,1.21,1.21,0,0,0-1.46-.52.93.93,0,0,0-.5.91,3.45,3.45,0,0,0,.29,1c.91,2.49.08,5.1-.39,7.59-.14.71-.82,2.62,0,3.06C37.13,168.4,38.44,167.21,38.73,166.51Z"/><path class="cls-5" d="M79.72,93.15a10.69,10.69,0,0,1,1.87-1.25c.53-.27,1.16-.61,1.15-1.14s-.65-.84-1.16-1.12a5.78,5.78,0,0,1-1.22-1,5.32,5.32,0,0,0-.75-.75,1.29,1.29,0,0,0-1.07-.23A2.3,2.3,0,0,0,78,88c-.38.26-.81.46-1.17.74a2.75,2.75,0,0,0-1.13,2.64,3.5,3.5,0,0,0,1.63,2.19C78.29,94.22,78.85,93.88,79.72,93.15Z"/><path class="cls-5" d="M72.11,90.93a5.44,5.44,0,0,0,1.51-.41,4.46,4.46,0,0,0,1.08-.85L77,87.44c-2.55-.64-5.21.5-7.53,1.63-2.83,1.38-5.94,2.85-9.16,2.42-.41-.06-1,0-.95.38,0,.14.19.22.33.29,1.78.76,4,.09,5.84-.19Q68.82,91.48,72.11,90.93Z"/><path class="cls-5" d="M48.35,90.14,47.3,88.41c-.09-.15-.19-.35-.06-.49a.62.62,0,0,1,.34-.14c.5-.09,1.11-.15,1.44.19a1.43,1.43,0,0,1,.29.76,2.74,2.74,0,0,0,1.74,1.85c.76.27,1.76.28,2.31.85C52.57,92.74,48.85,91,48.35,90.14Z"/><path class="cls-5" d="M80.43,169.66c-.29-.3-.66-.54-1-.84a5.09,5.09,0,0,1-1.14-3.59l-.6-12.52a4.7,4.7,0,0,1,.27-2.26c1.19,1.57,1,3.6,1.34,5.45a23.24,23.24,0,0,0,1.07,3.21,34.51,34.51,0,0,1,1.89,7.5c.16,1.12.63,2.77.32,3.88C82.16,172.07,81,170.27,80.43,169.66Z"/><path class="cls-5" d="M79.87,129.4a1.76,1.76,0,0,0,1.46,0,1.23,1.23,0,0,0,.33-1.14,35.63,35.63,0,0,1,1.42-10.11,2.69,2.69,0,0,0,0-1.77,2.41,2.41,0,0,0-2.73-1,3.43,3.43,0,0,0-2.19,1.92,8.08,8.08,0,0,0-.57,2.73L77,126.7c-.05.54-.25,1.58.24,2A10.08,10.08,0,0,0,79.87,129.4Z"/><path class="cls-3" d="M46.41,164.26a7.51,7.51,0,0,0,3.27.75,4.52,4.52,0,0,0,2.29-.4,1.51,1.51,0,0,0,.89-1.73,2.42,2.42,0,0,0-1.06-1,9.36,9.36,0,0,1-2.92-2.2,19.56,19.56,0,0,1-1-2.3A2.36,2.36,0,0,0,45.73,156a2.3,2.3,0,0,0-1.89,2C43.37,160,44.12,163.05,46.41,164.26Z"/><path class="cls-3" d="M46.77,154.67a2.29,2.29,0,0,0,1.84-.9,5.55,5.55,0,0,0,.55-1.54,4.75,4.75,0,0,1,1.41-2.13c.75-.65,1.74-1.17,2.13-2a2.5,2.5,0,0,0-.83-2.78,2.63,2.63,0,0,0-1.52-.76,3.29,3.29,0,0,0-2.79,1.68C46.54,147.65,42.34,154.69,46.77,154.67Z"/><path class="cls-3" d="M52.27,158a2.17,2.17,0,0,0,2.27-.81c.5-.63.72-1.4,1.15-2.06.12-.19.27-.41.18-.61a.74.74,0,0,0-.23-.27,2.85,2.85,0,0,0-2.25-.87C51.53,153.76,50,157.14,52.27,158Z"/><path class="cls-3" d="M66.08,168.73a2.59,2.59,0,0,0,1.81.91,7.15,7.15,0,0,0,2.16-.17,5.83,5.83,0,0,0,2.7-1.15,3.34,3.34,0,0,0,.93-1.54,3.05,3.05,0,0,0-.21-2.42A2.75,2.75,0,0,0,71.19,163a1.83,1.83,0,0,0-1,.25,2.25,2.25,0,0,0-.56.55,17.74,17.74,0,0,1-2.76,2.64C66.07,167.08,65.38,167.77,66.08,168.73Z"/><path class="cls-3" d="M71.69,162a2.29,2.29,0,0,0,2-.72A2.18,2.18,0,0,0,74,160.1c0-1.06.07-2.12.08-3.18a6.61,6.61,0,0,0-.29-2.34,2.83,2.83,0,0,0-2.87-1.86,2.67,2.67,0,0,0-2.1,2,17.63,17.63,0,0,0-.3,2.82C68.23,159.58,68.65,161.9,71.69,162Z"/><path class="cls-3" d="M66.36,103.51a7.59,7.59,0,0,1-1.77-2.1,6.58,6.58,0,0,0-2.33-1.85c-.61-.29-1.35-.59-1.46-1.17a1.23,1.23,0,0,1,.2-.8,4.35,4.35,0,0,1,2.59-1.86,4.28,4.28,0,0,1,2.16-.11c.71.16,1.31.55,2,.75.87.26,1.81.21,2.69.42a3.58,3.58,0,0,1,2.84,3.28,1.89,1.89,0,0,1-.21.9,3.48,3.48,0,0,1-.77.86C70.61,103.36,69,105.15,66.36,103.51Z"/><path class="cls-3" d="M73.13,96.52c.94.15,2.07-.3,2.2-1.11A1.47,1.47,0,0,0,74.49,94a4.93,4.93,0,0,0-1.81-.52,3,3,0,0,0-1.6.1C69,94.6,72,96.34,73.13,96.52Z"/><path class="cls-3" d="M50.14,99.5a1.67,1.67,0,0,0,1.56.35c.63-.22.87-.86,1.32-1.29a3.92,3.92,0,0,1,2.9-.75,2.47,2.47,0,0,0,1.25-.13A1.17,1.17,0,0,0,57.7,97a1.69,1.69,0,0,0-.17-1.33,3.89,3.89,0,0,0-2.66-1.47,14.71,14.71,0,0,0-2.1-.27,4.43,4.43,0,0,0-1.82.2,2.63,2.63,0,0,0-1.52,1.77A3.44,3.44,0,0,0,50.14,99.5Z"/><path class="cls-3" d="M56.83,104.2a2.68,2.68,0,0,0,3.15.39,4.31,4.31,0,0,0,.93-.82l1.17-1.26a1.59,1.59,0,0,0,.39-.55,1.15,1.15,0,0,0-.39-1.11,3.49,3.49,0,0,0-2.64-1C57.29,100,55.31,102.56,56.83,104.2Z"/><path class="cls-1" d="M111,14.34c-1.36-3.15-6.3-7.29-8.36-10A11.1,11.1,0,0,0,98.85.68a11,11,0,0,0-3.66-.77L79.41-1.56C73-2.15,60-.16,53.55,0,41.72.29,22.74-2,20.61-1S6.63,9.09,6.33,9.68,5,33.75,5.16,36.82C5.53,42.25,7,47.55,8,52.9A102.52,102.52,0,0,1,9.53,79.07,7.53,7.53,0,0,0,9.69,82,7.23,7.23,0,0,0,11,84.06L14.79,89c1.56,2,3.27,4.15,5.69,5a12.86,12.86,0,0,0,3.21.49L47.18,96a42,42,0,0,0,6.34.1,49.59,49.59,0,0,0,6-1.06,150,150,0,0,1,34.64-2.65,6.17,6.17,0,0,0,3.36-.54,7.63,7.63,0,0,0,1.67-1.64A17.22,17.22,0,0,1,104.66,86a6.69,6.69,0,0,0,2.27-1.47,5.35,5.35,0,0,0,.9-2.5c1.65-10.18-.62-20.57-.23-30.87C107.91,43.23,113,18.88,111,14.34Z"/><path class="cls-2" d="M108.14,15.72c-1.3-3-6-6.92-8-9.52A10.5,10.5,0,0,0,96.5,2.76,10.32,10.32,0,0,0,93,2L77.9.63C71.78.07,59.3,2,53.15,2.11c-11.31.27-29.48-1.89-31.51-1S8.26,10.74,8,11.3,6.65,34.15,6.86,37.05c.35,5.16,1.74,10.19,2.71,15.27A96.62,96.62,0,0,1,11,77.15a7.21,7.21,0,0,0,.15,2.78,6.88,6.88,0,0,0,1.21,2c1.22,1.56,2.44,3.13,3.67,4.69,1.5,1.92,3.13,3.93,5.44,4.7a12.74,12.74,0,0,0,3.08.46l22.48,1.51a40.74,40.74,0,0,0,6,.1,49,49,0,0,0,5.77-1A144.86,144.86,0,0,1,92,89.82a5.82,5.82,0,0,0,3.21-.51,6.77,6.77,0,0,0,1.6-1.56,16.71,16.71,0,0,1,5.22-4,6.1,6.1,0,0,0,2.17-1.4,4.89,4.89,0,0,0,.86-2.37c1.58-9.65-.59-19.52-.21-29.3C105.16,43.14,110,20,108.14,15.72Z"/><path class="cls-6" d="M108.16,15.68c-1.3-3-6-6.92-8-9.52a10.58,10.58,0,0,0-3.64-3.44A10.43,10.43,0,0,0,93,2L77.91.59C71.79,0,59.31,1.92,53.17,2.07c-11.32.27-29.48-1.89-31.52-1S8.28,10.7,8,11.26,6.67,34.1,6.87,37c.36,5.16,1.74,10.19,2.71,15.27a96.18,96.18,0,0,1,1.47,24.83,7.21,7.21,0,0,0,.16,2.78c0,.1.07.2.11.3,3.24-1.68,6.47-5.24,8.7-7a31.87,31.87,0,0,0,6.28-6c2.44-3.36,3.46-7.5,5.06-11.33A39.51,39.51,0,0,1,54.14,34.22c3.89-1.4,8-2.18,11.76-3.9a93.66,93.66,0,0,0,8.34-4.84c5.84-3.43,12.45-5.82,19.22-5.72,3.37,0,6.76.72,10.1.23a10.82,10.82,0,0,0,5-2.08A7.13,7.13,0,0,0,108.16,15.68Z"/><path class="cls-4" d="M96.77,20.78c-1-2.41-4.7-5.56-6.24-7.65a8.32,8.32,0,0,0-2.84-2.76A7.9,7.9,0,0,0,85,9.78L73.19,8.66C68.42,8.21,58.68,9.73,53.9,9.85c-8.83.22-23-1.52-24.58-.78a104,104,0,0,0-10.65,8.15c-.27.55-1,18.34-.87,20.68.28,4.14,1.36,8.17,2.11,12.25a79.33,79.33,0,0,1,1.15,19.94,5.91,5.91,0,0,0,.12,2.22,5.51,5.51,0,0,0,.94,1.58L25,77.65c1.17,1.54,2.45,3.16,4.25,3.77a9.7,9.7,0,0,0,2.4.38L49.15,83a29.76,29.76,0,0,0,4.72.08,37.67,37.67,0,0,0,4.49-.8,109.82,109.82,0,0,1,25.85-2,4.53,4.53,0,0,0,2.5-.41A5.75,5.75,0,0,0,88,78.59,12.88,12.88,0,0,1,92,75.36a4.88,4.88,0,0,0,1.69-1.13,4,4,0,0,0,.67-1.9c1.23-7.75-.46-15.67-.17-23.52C94.45,42.78,98.23,24.23,96.77,20.78Z"/><path class="cls-7" d="M93.53,16.47c.2.23.42.46.64.7Z"/><path class="cls-7" d="M26.91,79.71l-2.86-3.77a5.6,5.6,0,0,1-.94-1.57A6,6,0,0,1,23,72.14,79.8,79.8,0,0,0,21.84,52.2C21.08,48.13,20,44.09,19.73,40c-.16-2.33.59-20.13.87-20.67s9.06-7.41,10.65-8.15,15.75,1,24.57.77c4.79-.12,14.52-1.64,19.29-1.19l11.78,1.12a8,8,0,0,1,2.73.59,4.48,4.48,0,0,1,.72.44,7.65,7.65,0,0,0-2.65-2.51A8,8,0,0,0,85,9.76L73.18,8.64c-4.77-.45-14.5,1.07-19.29,1.19-8.82.22-23-1.52-24.57-.78s-10.43,7.7-10.65,8.15-1,18.34-.87,20.67c.28,4.15,1.36,8.18,2.11,12.26a79.69,79.69,0,0,1,1.15,19.93,6,6,0,0,0,.12,2.23,5.51,5.51,0,0,0,.94,1.58L25,77.63a16.12,16.12,0,0,0,2.42,2.72Z"/><path class="cls-4" d="M10,12.46a51.62,51.62,0,0,0,7.7,3.15,2.52,2.52,0,0,0,1.38.16,2.63,2.63,0,0,0,1-.57l7.9-6.28a.82.82,0,0,0,.32-.39.82.82,0,0,0-.2-.64l-3-4.49c-.52-.79-1.23-1.68-2.18-1.61a2.68,2.68,0,0,0-1.24.53q-3.75,2.45-7.4,5.05C13.2,8.11,7.45,11.18,10,12.46Z"/><path class="cls-4" d="M7.86,33.63a2.6,2.6,0,0,0,.26,1.91,2.48,2.48,0,0,0,1.35.72Q12.23,37,15,37.68a1,1,0,0,0,.67,0,.81.81,0,0,0,.34-.41,3.94,3.94,0,0,0-.45-3.54c-.62-1.07-1.48-2-2.1-3.06A15.68,15.68,0,0,1,12,26.1c-.57-2.59-1.13-5.19-1.7-7.78-.11-.49-.3-2.59-.81-2.51-.78.12-.59,2.17-.59,2.58,0,2.54-.12,5.09-.29,7.63S7.86,31.13,7.86,33.63Z"/><path class="cls-4" d="M64.51,7.78a10.42,10.42,0,0,0,3.75-1,10.38,10.38,0,0,0,2.42-2.07l2.43-2.52c.17-.18.35-.42.26-.65a.64.64,0,0,0-.54-.29c-2.44-.33-4.88.26-7.31.63a121.21,121.21,0,0,1-13.07.89c-1.1.05-2.52.39-2.63,1.49-.07.8.65,1.43,1.3,1.89,1.7,1.18,3.66,3,5.81,2.63C59.45,8.44,62,8.1,64.51,7.78Z"/><path class="cls-4" d="M85.09,8.65a7.83,7.83,0,0,0,3.16.07,8.66,8.66,0,0,0,2.39-1.11l4-2.39a2.6,2.6,0,0,0,.9-.74.88.88,0,0,0,0-1.08,1.43,1.43,0,0,0-.71-.27A115,115,0,0,0,77.71,1.6a1.61,1.61,0,0,0-1,.19c-.73.5-.29,1.63.24,2.33a12.41,12.41,0,0,0,3.32,3.34A16.15,16.15,0,0,0,85.09,8.65Z"/><path class="cls-4" d="M12.61,73.78c.43-2.38-.07-4.82-.18-7.24a2.76,2.76,0,0,1,.15-1.31,2,2,0,0,1,1.93-1,5.94,5.94,0,0,1,2.2.65l1.8.8a2.11,2.11,0,0,1,.87.59,2,2,0,0,1,.28.92c.12.92.21,1.84.26,2.77a3.14,3.14,0,0,1-.28,1.8,3.53,3.53,0,0,1-1,.94,20.92,20.92,0,0,0-4.23,4.07c-.54.7-1.92,2.91-2.63,1.4C11.26,77.1,12.41,74.87,12.61,73.78Z"/><path class="cls-5" d="M88.73,80.2a.68.68,0,0,0-.17.35.62.62,0,0,0,.13.37l3.55,5.82c.41.68.94,1.44,1.73,1.5s1.39-.55,1.94-1.08a19.72,19.72,0,0,1,5.5-3.75,6.44,6.44,0,0,0,1.66-.93,1.79,1.79,0,0,0,.64-1.7c-.18-.7-.88-1.11-1.53-1.44l-4.12-2.12c-1-.51-2.51-1.72-3.66-1.6C92.38,75.84,89.89,78.71,88.73,80.2Z"/><path class="cls-5" d="M72.16,81.51A34.71,34.71,0,0,0,58.59,84.6c-.39.2-.82.47-.86.91-.06.67.81,1,1.48,1,7.89.76,15.93-.46,23.7,1.06,2.63.52,5.24,1.35,7.91,1.25a.93.93,0,0,0,.82-.34c.15-.3,0-.65-.24-.93-1.2-1.71-2.4-3.43-3.61-5.14-1.39-2-4.9-1.07-7-1.07C77.88,81.39,75,81.36,72.16,81.51Z"/><path class="cls-5" d="M100.65,21.79a2.79,2.79,0,0,0-1.55.54,2.55,2.55,0,0,0-.62,1.14c-1.68,5.13-.36,10.88-2,16a2.44,2.44,0,0,0-.19,1.3c.09.43.57.8,1,.61a1,1,0,0,0,.41-.44c1.23-2.06,1.64-4.48,2.24-6.8s1.5-4.72,3.38-6.2c.65-.52,1.39-.9,2-1.47A8.59,8.59,0,0,0,106.94,24C109.05,20,102.64,21.53,100.65,21.79Z"/><path class="cls-3" d="M29.58,54a9.74,9.74,0,0,0-2.53,3.71,6.78,6.78,0,0,0-.47,4.71,3.34,3.34,0,0,0,3.73,2.33c1.89-.52,2.51-2.85,3.86-4.28A4.84,4.84,0,0,1,37.11,59c1.26-.15,2.59.19,3.76-.27a3.51,3.51,0,0,0,1.79-4.33,5,5,0,0,0-3.87-3.08C36.11,50.81,31.66,52.24,29.58,54Z"/><path class="cls-3" d="M41.66,64.44A3.93,3.93,0,0,0,44,67.76c2.1.84,4.65-.51,5.59-2.56A3.24,3.24,0,0,0,50,63.43a3.16,3.16,0,0,0-2.21-2.38C45,60.09,41.4,60.68,41.66,64.44Z"/><path class="cls-3" d="M24.24,46.19a8.59,8.59,0,0,0,.44,3.31,4,4,0,0,0,2.25,2.34,3.19,3.19,0,0,0,3.94-1.93c.5-1.53-.23-3.15-.58-4.72a9.77,9.77,0,0,1-.07-3.92,5.42,5.42,0,0,0,.12-3.08,2.57,2.57,0,0,0-3.6-.92C24.59,38.61,24.3,44,24.24,46.19Z"/><path class="cls-3" d="M21.15,35.4A2.46,2.46,0,0,0,23,36a11.94,11.94,0,0,0,5-1.64c.66-.33,1.4-.76,1.51-1.49A1.73,1.73,0,0,0,29,31.51C26.37,28.64,18.16,32.2,21.15,35.4Z"/><path class="cls-3" d="M28.76,68.09a3.33,3.33,0,0,0-1.7.55,2.52,2.52,0,0,0,.71,4.62,4.14,4.14,0,0,0,3.5-.66,9.25,9.25,0,0,0,2.45-2.72,3,3,0,0,0,.58-1.51,2,2,0,0,0-1.57-1.78,4,4,0,0,0-2.49.36,8.81,8.81,0,0,0-1.37.78Z"/><path class="cls-3" d="M51,16.33a3.51,3.51,0,0,0-1,3.55,4.79,4.79,0,0,0,2.21,2.47c1,.58,2,1,3,1.54,1.87,1.06,3.51,2.74,5.64,3a4.89,4.89,0,0,0,5.31-4.05c.33-2.51-1.47-4.92-3.71-6.09C59.82,15.41,53.54,14,51,16.33Z"/><path class="cls-3" d="M67.11,14.34a1.88,1.88,0,0,0,.74,1.83,5.64,5.64,0,0,0,1.89.84l2.07.63a11.29,11.29,0,0,0,3.19.63,3.73,3.73,0,0,0,2.92-1.22,2.29,2.29,0,0,0,0-3,3.74,3.74,0,0,0-2.2-.78C74,13.07,67.83,11.56,67.11,14.34Z"/><path class="cls-3" d="M84,52.12a10,10,0,0,0-2,1.6L77.68,58a4,4,0,0,0-1.19,1.63c-.44,1.4.86,2.88,2.31,3.14A6.33,6.33,0,0,0,83,61.6a16.48,16.48,0,0,1,3.88-2.07c1.33-.37,2.92-.34,3.84-1.38a3.25,3.25,0,0,0,.64-1.22,4.65,4.65,0,0,0,0-3C90.43,51.44,86.13,51,84,52.12Z"/><path class="cls-3" d="M88.88,42.79s-3.09-.47-4.2,1.33A2.8,2.8,0,0,0,85,47.47a4,4,0,0,0,1.64.92,4.43,4.43,0,0,0,1.61.27,3,3,0,0,0,.62-5.87Z"/><path class="cls-8" d="M24.41,24c-1.83,4.58-1.2,9.85.63,14.42a8.77,8.77,0,0,0,2.06,3.35,3.74,3.74,0,0,0,3.66.93A4,4,0,0,0,33,39.15a14.55,14.55,0,0,0-.77-4.41,38.16,38.16,0,0,1-1-5.41,12.31,12.31,0,0,1,.15-4.53,5.21,5.21,0,0,1,2.73-3.47c.85-.38,1.81-.45,2.69-.75a2.57,2.57,0,0,0,1.9-1.84c.53-3.5-5.84-2.38-7.45-1.73A12.74,12.74,0,0,0,24.41,24Z"/><path class="cls-8" d="M87.39,46.17a30.53,30.53,0,0,1-.17,10.27,3.16,3.16,0,0,0,.26,2.67c.75.87,2.28.54,3-.36a5.83,5.83,0,0,0,.92-3.27c.43-6.19.44-12.41.45-18.62a8.23,8.23,0,0,0-.49-3.49c-1.79-3.92-5.29-1.83-5.6,1.56C85.43,38.71,86.82,42.47,87.39,46.17Z"/><path class="cls-8" d="M79.46,74.53c-3.73.35-7.66-.6-11.13.8a1.93,1.93,0,0,0-1.21,1,1.41,1.41,0,0,0,.55,1.47,3.21,3.21,0,0,0,1.56.57,23.13,23.13,0,0,0,5.06.06l9.83-.6a5.49,5.49,0,0,0,1.51-.25,5.13,5.13,0,0,0,2.08-1.9,2.82,2.82,0,0,0,.78-1.95C88.05,70.44,81.2,74.36,79.46,74.53Z"/><path class="cls-5" d="M77.49,68.51a2.09,2.09,0,0,1-1.73.91,5.5,5.5,0,0,0-2,.46,1,1,0,0,1-.45.06c-2.73-.5-1.71-3.9-4.56-1.09-1.75,1-2.51.4-2.94-.68a9.18,9.18,0,0,0-6.63-5.8,6.58,6.58,0,0,1-1-.25c-1.42,0-2.56-1.41-3.92-1.25-.69.68-.84,2.83-2.31,1.66-1.83-3-8-10.71-.42-10.38,4,0,7.48,2.9,11.41,2.7,5.2-.36,8.66-3.75,9.77-8.78,3.23-6.29-4.59-18.21-11.94-16.2-8.1,2.22-9.85,8.86-14.37-3C59,11.33,81.93,23.19,84.69,40.73c1.44,17.14-6.4,14.93-6.61,25.84A3.32,3.32,0,0,1,77.49,68.51Z"/><path class="cls-5" d="M62.08,74.16c-1,1.89-3,2-4.8,1.62-4.63.71-5.14-5.77-3.15-8.61,1.26-1.4,3.56-4,5.55-2.82C62,66.89,63.7,70.73,62.08,74.16Z"/><path class="cls-5" d="M59.47,41.71c-1.8,3.91-14.46,3.5-16.88,3.76-7.7,1-10.81.43-9.42-8.16.12-.86.62-6.84,1.06-9,.47-2.51,0-5.69,2.05-7.6,4.64-1.18,7.28,4.2,9.46,7.38.59.62,2.92,5.8,4.55,7.52C52.62,38.3,58.94,37.16,59.47,41.71Z"/><path class="cls-3" d="M76.26,64.81a3,3,0,0,1-.52,1.75,1.91,1.91,0,0,1-1.58.83,4.83,4.83,0,0,0-1.82.42.93.93,0,0,1-.41,0c-2.47-.46-1.55-3.54-4.13-1-1.59.87-2.27.36-2.66-.61a8.3,8.3,0,0,0-6-5.25,6.74,6.74,0,0,1-.88-.24c-1.28,0-2.32-1.27-3.55-1.13-.62.62-.76,2.56-2.09,1.5-1.5-2.48-6.22-8.4-2-9.29a6.21,6.21,0,0,1,1.64-.11c3.65,0,6.77,2.63,10.33,2.45,4.71-.33,7.85-3.4,8.85-8,2.93-5.69-4.15-16.49-10.81-14.67C55,33.1,52.74,37,50.17,33.9a18.22,18.22,0,0,1-2.59-5.08C59,14.77,79.76,25.51,82.26,41.4,83.56,56.93,76.46,54.93,76.26,64.81Z"/><path class="cls-3" d="M54.49,66.2c-1.81,2.58-1.35,8.45,2.85,7.81,1.65.38,3.46.24,4.34-1.47,1.47-3.1-.11-6.59-2.17-8.89C57.71,62.62,55.62,64.94,54.49,66.2Zm6,2.36a2,2,0,0,1-2.4.82c-2.32.38-2.55-2.87-1.55-4.3.63-.7,1.8-2,2.78-1.42C60.5,64.92,61.36,66.84,60.54,68.56Z"/><path class="cls-3" d="M59.26,42.57l.16-.29c-.48-4.12-6.21-3.09-8.32-5.57L51,36.57a10.4,10.4,0,0,0,1.12,1.57C53.86,40.21,58.49,39.48,59.26,42.57Z"/><path class="cls-3" d="M47.07,30l.08.1Z"/><path class="cls-3" d="M38.59,39.52c.09-.68.49-5.4.83-7.14.38-2,0-4.49,1.62-6,2.5-.64,4.26,1.13,5.67,3.11-1.92-2.9-4.29-7.3-8.3-6.28-1.86,1.73-1.43,4.61-1.86,6.89-.39,2-.85,7.42-1,8.2-1,6.28.63,7.8,5,7.69C38.58,45.41,37.92,43.65,38.59,39.52Z"/><path class="cls-8" d="M71.41,46.23c-1,4.56-4.14,7.63-8.85,8-3.56.18-6.68-2.48-10.33-2.45a6.21,6.21,0,0,0-1.64.11,3.22,3.22,0,0,1,2.49-.61c3.18,0,5.91,2.28,9,2.13,4.1-.29,6.83-3,7.71-6.93,2.55-5-3.62-14.38-9.43-12.79S53,39.5,50.17,33.9C52.74,37,55,33.1,60.6,31.56,67.26,29.74,74.34,40.54,71.41,46.23Z"/><path class="cls-8" d="M56.59,65.08c-1,1.43-.77,4.68,1.55,4.3a2,2,0,0,0,2.4-.82c.82-1.72,0-3.64-1.17-4.9C58.39,63.09,57.22,64.38,56.59,65.08Z"/><path class="cls-8" d="M44.13,45.69c2.13-.23,13,.11,15.13-3.12-.77-3.09-5.4-2.36-7.16-4.43A10.4,10.4,0,0,1,51,36.57c-1.35-1.54-3.14-5.38-3.83-6.45l-.08-.1A.62.62,0,0,0,47,29.9l-.27-.41c-1.41-2-3.17-3.75-5.67-3.11-1.62,1.51-1.24,4-1.62,6-.34,1.74-.74,6.46-.83,7.14-.67,4.13,0,5.89,2,6.47C41.6,46,42.79,45.85,44.13,45.69Z"/><path class="cls-8" d="M44.13,45.69c2.13-.23,13,.11,15.13-3.12-.77-3.09-5.4-2.36-7.16-4.43A10.4,10.4,0,0,1,51,36.57c-1.35-1.54-3.14-5.38-3.83-6.45l-.08-.1A.62.62,0,0,0,47,29.9l-.27-.41c-1.41-2-3.17-3.75-5.67-3.11-1.62,1.51-1.24,4-1.62,6-.34,1.74-.74,6.46-.83,7.14-.67,4.13,0,5.89,2,6.47C41.6,46,42.79,45.85,44.13,45.69Z"/><path class="cls-8" d="M56.59,65.08c-1,1.43-.77,4.68,1.55,4.3a2,2,0,0,0,2.4-.82c.82-1.72,0-3.64-1.17-4.9C58.39,63.09,57.22,64.38,56.59,65.08Z"/></svg>