<svg id="Layer_1" data-name="Layer 1" xmlns="http://www.w3.org/2000/svg" viewBox="0 0 209.25 100.72"><defs><style>.cls-1{fill:#717373;}.cls-2{fill:#909493;}.cls-3{fill:#a0a4a5;}.cls-4{fill:#aeb3b3;}.cls-5{fill:#bfbfb6;}.cls-6{fill:#818484;}.cls-7{fill:#a0a2a1;}.cls-8{fill:#fff;opacity:0.35;}</style></defs><title>Stonelayer</title><path class="cls-1" d="M17.67,3.41l-15.58,7,.25,29.84C1.78,49.21,0,67.13,0,67.13L2.34,84.7,12,99.09l103.53-1.86,41,3.5,44.78-1.64,7.93-7.84s-2.26-21.31-3.4-30.64,3.4-39.79,3.4-39.79L198.62,1.36s-41.41,1.46-63.57,2.05S112.86,1.23,90.2.18,17.67,3.41,17.67,3.41Z"/><path class="cls-2" d="M21,6.91l-15,6.52L6.3,41.18c-.54,8.32-2.25,25-2.25,25L6.3,82.49l9.29,13.39,99.51-1.73,39.41,3.25,43-1.52,7.63-7.3S203,68.77,201.9,60.1s3.27-37,3.27-37L195,5s-39.8,1.35-61.1,1.9-21.33-2-43.1-3S21,6.91,21,6.91Z"/><path class="cls-3" d="M133.85,6.91c-21.29.55-21.33-2-43.1-3S21,6.91,21,6.91l-15,6.52L6.3,41.18c-.54,8.32-2.25,25-2.25,25L6.3,82.49l9.25,13.33c4.69-4.89,9.74-10,14.11-15.15,3-3.6,5.44-7.69,8.71-11.07,3.9-4,8.85-6.87,13.75-9.61,10.42-5.83,21-11.47,32.12-15.74,30.4-11.68,63.67-12.72,96.2-14.11,7.6-.33,15.43-.74,22.28-4a15.91,15.91,0,0,0,2.19-1.26c.16-1.12.26-1.75.26-1.75L195,5S155.15,6.36,133.85,6.91Z"/><path class="cls-4" d="M30.19,16.24l-13.35,5,.21,21.21c-.47,6.35-2,19.08-2,19.08l2,12.48,8.29,10.23L114,82.9l35.12,2.49,38.35-1.17,6.79-5.57s-1.94-15.14-2.91-21.77,2.91-28.27,2.91-28.27l-9.1-13.82s-35.47,1-54.45,1.45-19-1.54-38.41-2.29S30.19,16.24,30.19,16.24Z"/><path class="cls-5" d="M16.87,65.14s1.52-12.72,2-19.08l-.21-21.2,13.35-5s42.72-3,62.12-2.3,19.43,2.72,38.41,2.3S187,18.42,187,18.42l7.17,10.88c.08-.44.12-.69.12-.69l-9.1-13.82s-35.47,1-54.45,1.45-19-1.54-38.41-2.29-62.12,2.29-62.12,2.29l-13.35,5,.21,21.21c-.47,6.35-2,19.08-2,19.08l2,12.48,1.54,1.9Z"/><path class="cls-4" d="M8.78,15.82l5,2.93a4.14,4.14,0,0,0,1.45.62A4.29,4.29,0,0,0,17,19.1l8.72-2.69a2.77,2.77,0,0,0,1.38-.74,2.41,2.41,0,0,0,.21-2.09A9.23,9.23,0,0,0,24.61,9,3.83,3.83,0,0,0,22.16,7.8a4.94,4.94,0,0,0-2.07.6l-9,4.19c-.7.32-2.56.44-3.08.83C6.42,14.62,8.78,15.15,8.78,15.82Z"/><path class="cls-4" d="M7.87,21.75A36.84,36.84,0,0,1,8,31.42c-.24,2.12-.67,4.33,0,6.36A12.1,12.1,0,0,0,10,41c1.64,2.2,3.27,4.41,4.91,6.62,2-5.31.16-11.17.24-16.82,0-3,.51-6.27-1.3-8.62a10.64,10.64,0,0,0-3.31-2.5c-.6-.34-2.15-1.64-2.86-1C7.13,19,7.78,21.17,7.87,21.75Z"/><path class="cls-4" d="M161.1,14.45c2.61.17,5.77.15,7.17-2.06a3.61,3.61,0,0,0,0-3.76,3.45,3.45,0,0,0-3.42-1.52,12.86,12.86,0,0,0-3.23,1.57A13.59,13.59,0,0,1,157,9.73l-15.89,1.71c-2.12.23-12.08-.25-11.59,3.4,5.27.08,10.65-.74,16-.81S155.91,14.45,161.1,14.45Z"/><path class="cls-4" d="M192.5,23.38a6.56,6.56,0,0,0,5.69,2.33A9.5,9.5,0,0,0,201,24.63a1.85,1.85,0,0,0,.94-.8,1.76,1.76,0,0,0,0-1.11,29.12,29.12,0,0,0-2.75-6.52l-3-5.75c-.37-.71-.88-1.52-1.69-1.58a2.25,2.25,0,0,0-1.7,1,4.57,4.57,0,0,0-1.07,1.64,10.23,10.23,0,0,0-.1,2.6c-.07,1.81-1.88,2.9-2,4.34S191.62,22.42,192.5,23.38Z"/><path class="cls-4" d="M14.25,76a2.25,2.25,0,0,0,.61-.62,2.38,2.38,0,0,0,.2-1.18c0-.88,0-1.75,0-2.63a5.87,5.87,0,0,0-.39-2.5,2.85,2.85,0,0,0-4.6-.73c-.89.92-1.06,2.3-1.63,3.44C8,72.54,7.41,73.22,7,74c-.72,1.23-1.84,6.22.42,6.63C8.39,80.8,13.25,76.72,14.25,76Z"/><path class="cls-4" d="M31.79,13.09c2,.71,4.25.33,6.37,0a74.53,74.53,0,0,1,13.6-.66A6.6,6.6,0,0,0,55,12.07a2.12,2.12,0,0,0,1.13-2.71,2.14,2.14,0,0,0-2-.93A8.65,8.65,0,0,0,51.9,9c-5.4,1.68-11,.15-16.44-.73-1.54-.26-5.67-1.52-6.63,0C27.7,10.12,30.29,12.56,31.79,13.09Z"/><path class="cls-6" d="M190.73,89a19.76,19.76,0,0,1,2.71,3.47c.59,1,1.33,2.16,2.48,2.13s1.8-1.2,2.43-2.14a10.07,10.07,0,0,1,2.06-2.26,10.78,10.78,0,0,0,1.61-1.4,2.15,2.15,0,0,0,.5-2,3.72,3.72,0,0,0-.71-1.06c-.56-.7-1-1.49-1.6-2.16a6.51,6.51,0,0,0-5.73-2.1,7.61,7.61,0,0,0-4.74,3C188.41,86.39,189.15,87.42,190.73,89Z"/><path class="cls-6" d="M195.55,75a8.5,8.5,0,0,0,.88,2.79,8.68,8.68,0,0,0,1.84,2L203.1,84c1.39-4.74-1.08-9.67-3.53-14-3-5.25-6.17-11-5.23-17,.13-.77-.08-2-.83-1.77-.3.07-.48.36-.62.63-1.65,3.3-.19,7.42.4,10.82Q194.36,68.85,195.55,75Z"/><path class="cls-6" d="M197.25,30.92,201,29c.34-.17.77-.34,1.07-.11a1.09,1.09,0,0,1,.29.63c.2.93.33,2.07-.4,2.68a3.69,3.69,0,0,1-1.65.53,5.59,5.59,0,0,0-4,3.23c-.6,1.39-.62,3.26-1.84,4.28C191.63,38.75,195.48,31.85,197.25,30.92Z"/><path class="cls-6" d="M25,90.35c.67-.53,1.19-1.22,1.83-1.79,2.06-1.8,5-2,7.78-2.11l27.12-1.11a11.87,11.87,0,0,1,4.9.49c-3.4,2.22-7.8,1.8-11.8,2.5a53,53,0,0,0-7,2,86.74,86.74,0,0,1-16.24,3.5c-2.43.29-6,1.16-8.41.58C19.75,93.56,23.65,91.39,25,90.35Z"/><path class="cls-6" d="M112.19,89.32c-.28.9-.54,2,.07,2.7a3,3,0,0,0,2.46.62c7.38-.33,14.7,1.13,21.92,2.62a6.79,6.79,0,0,0,3.84,0,4.17,4.17,0,0,0,2.12-5,6.84,6.84,0,0,0-4.17-4.07,20,20,0,0,0-5.91-1.05L118.05,84c-1.16-.09-3.43-.46-4.34.45S112.54,88.22,112.19,89.32Z"/><path class="cls-7" d="M36.67,27.33A12.37,12.37,0,0,0,35,33.38a7.49,7.49,0,0,0,.87,4.25,3.44,3.44,0,0,0,3.75,1.64,4.92,4.92,0,0,0,2.26-2c1.42-2,2.67-4.19,4.77-5.41,1.53-.9,3.36-1.15,5-1.87s3.18-2.2,3-4c-.18-2-2.35-3.13-4.3-3.5C45.81,21.69,39.29,23.09,36.67,27.33Z"/><path class="cls-7" d="M57.45,28a4,4,0,0,0,1.95,3.4,12.59,12.59,0,0,0,3.34,1A10.56,10.56,0,0,1,67.35,35c1.42,1.39,2.53,3.23,4.38,4,2,.8,4.41-.06,6-1.54a4.78,4.78,0,0,0,1.65-2.83c.26-2.21-1.74-4-3.65-5.16C72.67,27.56,57.4,19.79,57.45,28Z"/><path class="cls-7" d="M50.32,38.18c-.64,1.52.4,3.28,1.77,4.21s3,1.33,4.46,2.13a1.66,1.66,0,0,0,1.31.34,1.55,1.55,0,0,0,.58-.44c1.1-1.15,2.29-2.61,1.88-4.15C59.41,36.81,52.11,33.91,50.32,38.18Z"/><path class="cls-7" d="M27,63.77a4.65,4.65,0,0,0-2,3.36,10.81,10.81,0,0,0,.38,4,9.88,9.88,0,0,0,2.49,5,7.44,7.44,0,0,0,3.33,1.72,7.62,7.62,0,0,0,5.24-.39,5,5,0,0,0,2.87-4.23,3.05,3.05,0,0,0-.54-1.86,5.24,5.24,0,0,0-1.2-1.05,34.73,34.73,0,0,1-5.72-5.11C30.57,63.75,29.07,62.47,27,63.77Z"/><path class="cls-7" d="M41.47,74.17A4,4,0,0,0,43,77.82a5.43,5.43,0,0,0,2.65.56q3.43.14,6.89.15A16,16,0,0,0,57.65,78c2.31-.73,4.42-2.92,4-5.31-.33-2-2.3-3.41-4.29-3.9s-4.07-.33-6.11-.55C46.81,67.75,41.78,68.54,41.47,74.17Z"/><path class="cls-7" d="M168.3,64.28c1.12-1.5,3-2.23,4.53-3.27a12.48,12.48,0,0,0,4-4.32c.63-1.12,1.28-2.5,2.54-2.7a2.89,2.89,0,0,1,1.74.37,8.3,8.3,0,0,1,4,4.79,6.88,6.88,0,0,1,.25,4c-.35,1.31-1.2,2.43-1.64,3.71-.55,1.6-.44,3.36-.91,5a7.48,7.48,0,0,1-7.1,5.26,4.77,4.77,0,0,1-1.94-.39,7.17,7.17,0,0,1-1.87-1.42C168.62,72.16,164.74,69.1,168.3,64.28Z"/><path class="cls-7" d="M183.43,76.84c-.31,1.73.66,3.82,2.4,4.07a3.31,3.31,0,0,0,3-1.55A8.16,8.16,0,0,0,190,76a4.6,4.6,0,0,0-.22-3C187.6,69.09,183.82,74.66,183.43,76.84Z"/><path class="cls-7" d="M177,34.24a2.79,2.79,0,0,0-.77,2.89c.48,1.16,1.86,1.61,2.8,2.44,1.45,1.29,1.75,3.45,1.63,5.38a3.84,3.84,0,0,0,.28,2.31,2.44,2.44,0,0,0,1.49,1,4.16,4.16,0,0,0,2.88-.3c1.81-.91,2.7-3,3.17-4.93a22.28,22.28,0,0,0,.6-3.9,7,7,0,0,0-.44-3.37,5.57,5.57,0,0,0-3.82-2.83C182.28,32.31,178.93,32.26,177,34.24Z"/><path class="cls-7" d="M166.79,46.62a4.45,4.45,0,0,0-.83,5.86,8.6,8.6,0,0,0,1.76,1.7l2.73,2.19a3.65,3.65,0,0,0,1.19.72,2.77,2.77,0,0,0,2.42-.74,5.89,5.89,0,0,0,2.08-4.87C175.86,47.49,170.35,43.82,166.79,46.62Z"/><path class="cls-8" d="M26.91,27.57c4.25-4,10.84-3.45,16.65-3.23,10.7.4,21.36-1.08,32-1.84,1.9-.14,4.3.06,5,1.84a3,3,0,0,1-1.74,3.53,8.61,8.61,0,0,1-4.22.58c-12.34-.43-24.91-2.09-36.87.93-2.12.54-4.36,1.34-5.57,3.16-.95,1.45-1.07,3.28-1.39,5s-1,3.55-2.6,4.29C21.84,44.78,24.4,29.93,26.91,27.57Z"/><path class="cls-8" d="M173.77,79.76a7.38,7.38,0,0,0,4.85,1.1c4.72-.34,9.36-3.74,10.08-8.41.39-2.49-.33-5-.85-7.47A49.36,49.36,0,0,1,187,51.1c.2-2.65.61-5.4-.3-7.89a2.66,2.66,0,0,0-1.13-1.54c-1.4-.76-3,.79-3.57,2.26A21.06,21.06,0,0,0,180.63,51a64.93,64.93,0,0,0,.84,14.13c1,5.59,0,7.18-4.81,8.32C173.79,74.15,169.08,76.42,173.77,79.76Z"/></svg>